{
    "Drum1": {
        "values": [
            {
                "key": "ENGINE",
                "value": 4.0
            },
            {
                "key": "VAL_1",
                "value": -11.0
            },
            {
                "key": "VAL_2",
                "value": 146.0
            },
            {
                "key": "VAL_3",
                "value": 9.0
            },
            {
                "key": "VAL_4",
                "value": 23.0
            },
            {
                "key": "VAL_5",
                "value": -47.0
            },
            {
                "key": "VAL_6",
                "value": 63.0
            },
            {
                "key": "VAL_7",
                "value": 67.00000762939453
            },
            {
                "key": "VAL_8",
                "value": 40.0
            },
            {
                "key": "VAL_9",
                "value": 7.0
            },
            {
                "key": "VAL_10",
                "value": 9.0
            },
            {
                "key": "DURATION",
                "value": 990.0
            },
            {
                "key": "AMP_MORPH",
                "value": 82.0
            }
        ]
    },
    "Sequencer": {
        "STATUS": 1.0,
        "STEPS": [
            {
                "condition": "---",
                "enabled": true,
                "len": 1,
                "motion": "---",
                "note": 60,
                "position": 0,
                "velocity": 0.809999942779541
            },
            {
                "condition": "---",
                "enabled": true,
                "len": 1,
                "motion": "---",
                "note": 60,
                "position": 4,
                "velocity": 0.800000011920929
            },
            {
                "condition": "---",
                "enabled": true,
                "len": 1,
                "motion": "---",
                "note": 60,
                "position": 8,
                "velocity": 0.800000011920929
            },
            {
                "condition": "---",
                "enabled": true,
                "len": 1,
                "motion": "---",
                "note": 60,
                "position": 12,
                "velocity": 0.800000011920929
            },
            {
                "condition": "---",
                "enabled": true,
                "len": 1,
                "motion": "---",
                "note": 60,
                "position": 16,
                "velocity": 0.800000011920929
            },
            {
                "condition": "---",
                "enabled": true,
                "len": 1,
                "motion": "---",
                "note": 60,
                "position": 20,
                "velocity": 0.800000011920929
            },
            {
                "condition": "---",
                "enabled": true,
                "len": 1,
                "motion": "---",
                "note": 60,
                "position": 24,
                "velocity": 0.800000011920929
            },
            {
                "condition": "---",
                "enabled": true,
                "len": 1,
                "motion": "---",
                "note": 60,
                "position": 28,
                "velocity": 0.800000011920929
            },
            {
                "condition": "Impair",
                "enabled": true,
                "len": 1,
                "motion": "---",
                "note": 60,
                "position": 30,
                "velocity": 0.800000011920929
            },
            {
                "condition": "40%",
                "enabled": true,
                "len": 1,
                "motion": "---",
                "note": 60,
                "position": 31,
                "velocity": 0.800000011920929
            },
            {
                "condition": "20%",
                "enabled": true,
                "len": 1,
                "motion": "---",
                "note": 60,
                "position": 29,
                "velocity": 0.800000011920929
            },
            {
                "condition": "Pair",
                "enabled": true,
                "len": 1,
                "motion": "---",
                "note": 60,
                "position": 32,
                "velocity": 0.800000011920929
            },
            {
                "condition": "---",
                "enabled": true,
                "len": 1,
                "motion": "---",
                "note": 60,
                "position": 36,
                "velocity": 0.800000011920929
            },
            {
                "condition": "---",
                "enabled": true,
                "len": 1,
                "motion": "---",
                "note": 60,
                "position": 40,
                "velocity": 0.800000011920929
            },
            {
                "condition": "---",
                "enabled": true,
                "len": 1,
                "motion": "---",
                "note": 60,
                "position": 44,
                "velocity": 0.800000011920929
            },
            {
                "condition": "---",
                "enabled": true,
                "len": 1,
                "motion": "---",
                "note": 60,
                "position": 48,
                "velocity": 0.800000011920929
            },
            {
                "condition": "---",
                "enabled": true,
                "len": 1,
                "motion": "---",
                "note": 60,
                "position": 56,
                "velocity": 0.800000011920929
            },
            {
                "condition": "Pair",
                "enabled": true,
                "len": 1,
                "motion": "---",
                "note": 60,
                "position": 52,
                "velocity": 0.800000011920929
            },
            {
                "condition": "---",
                "enabled": true,
                "len": 1,
                "motion": "---",
                "note": 60,
                "position": 60,
                "velocity": 0.800000011920929
            },
            {
                "condition": "---",
                "enabled": true,
                "len": 1,
                "motion": "---",
                "note": 60,
                "position": 62,
                "velocity": 0.5900001525878906
            }
        ]
    },
    "SerializeTrack": {
        "VARIATION": 402.0
    }
}