G04 Layer: BoardOutlineLayer*
G04 EasyEDA v6.5.39, 2024-01-10 14:02:24*
G04 e6309a9ae6df4a64a2b4a1025b6fbdcd,24315905b9734375b2ccc5c6aeea7757,10*
G04 Gerber Generator version 0.2*
G04 Scale: 100 percent, Rotated: No, Reflected: No *
G04 Dimensions in millimeters *
G04 leading zeros omitted , absolute positions ,4 integer and 5 decimal *
%FSLAX45Y45*%
%MOMM*%

%ADD10C,0.0508*%
%ADD11C,0.1270*%
D10*
X0Y0D02*
G01*
X0Y1700021D01*
X4700015Y1700021D01*
X4700015Y0D01*
X0Y0D01*
D11*
X3302241Y397903D02*
G01*
X3302241Y1297899D01*
X4302231Y297903D02*
G01*
X3402241Y297903D01*
X4402231Y1297899D02*
G01*
X4402231Y397903D01*
X3402241Y1397899D02*
G01*
X4302231Y1397899D01*
X1802241Y397903D02*
G01*
X1802241Y1297899D01*
X2802242Y297903D02*
G01*
X1902241Y297903D01*
X2902242Y1297899D02*
G01*
X2902242Y397903D01*
X1902241Y1397899D02*
G01*
X2802242Y1397899D01*
X301122Y398952D02*
G01*
X301122Y1298945D01*
X1301117Y298952D02*
G01*
X401121Y298952D01*
X1401117Y1298945D02*
G01*
X1401117Y398952D01*
X401121Y1398948D02*
G01*
X1301117Y1398948D01*
G75*
G01*
X3302239Y1297899D02*
G02*
X3402289Y1397823I98876J1049D01*
G75*
G01*
X4302237Y1397899D02*
G02*
X4402287Y1298001I89J-99962D01*
G75*
G01*
X4402237Y397901D02*
G02*
X4302211Y298003I-100206J307D01*
G75*
G01*
X3302239Y397901D02*
G03*
X3402289Y298003I102303J2409D01*
G75*
G01*
X1802242Y1297899D02*
G02*
X1902292Y1397823I98876J1049D01*
G75*
G01*
X2802240Y1397899D02*
G02*
X2902290Y1298001I89J-99962D01*
G75*
G01*
X2902240Y397901D02*
G02*
X2802214Y298003I-100206J307D01*
G75*
G01*
X1802242Y397901D02*
G03*
X1902292Y298003I102303J2409D01*
G75*
G01*
X301122Y398950D02*
G03*
X401173Y299052I102303J2409D01*
G75*
G01*
X1401120Y398950D02*
G02*
X1301095Y299052I-100205J307D01*
G75*
G01*
X1301120Y1398948D02*
G02*
X1401171Y1299050I89J-99961D01*
G75*
G01*
X301122Y1298948D02*
G02*
X401173Y1398872I98877J1049D01*

%LPD*%
M02*
