G04 Layer: BoardOutlineLayer*
G04 EasyEDA v6.5.39, 2024-01-08 11:37:38*
G04 6cd0d5bafeca4fa0971910b3ad43bacb,24315905b9734375b2ccc5c6aeea7757,10*
G04 Gerber Generator version 0.2*
G04 Scale: 100 percent, Rotated: No, Reflected: No *
G04 Dimensions in inches *
G04 leading zeros omitted , absolute positions ,3 integer and 6 decimal *
%FSLAX36Y36*%
%MOIN*%

%ADD10C,0.0050*%
%ADD11C,0.0020*%
D10*
X100000Y1950000D02*
G01*
X100000Y2350000D01*
D11*
X0Y0D02*
G01*
X0Y2450000D01*
X7300000Y2500000D01*
X7300000Y0D01*
X0Y0D01*
D10*
X600000Y2350000D02*
G01*
X600000Y1950000D01*
X150000Y2400000D02*
G01*
X550000Y2400000D01*
X4902240Y1947759D02*
G01*
X4902240Y2347759D01*
X6756722Y593276D02*
G01*
X7156722Y593276D01*
X6706722Y143276D02*
G01*
X6706722Y543276D01*
X7156722Y93276D02*
G01*
X6756722Y93276D01*
X7206722Y543276D02*
G01*
X7206722Y143276D01*
X6156722Y593276D02*
G01*
X6556722Y593276D01*
X6106722Y143276D02*
G01*
X6106722Y543276D01*
X6556722Y93276D02*
G01*
X6156722Y93276D01*
X6606722Y543276D02*
G01*
X6606722Y143276D01*
X5556719Y593276D02*
G01*
X5956722Y593276D01*
X5506719Y143276D02*
G01*
X5506719Y543276D01*
X5956722Y93276D02*
G01*
X5556719Y93276D01*
X6006722Y543276D02*
G01*
X6006722Y143276D01*
X4956719Y593276D02*
G01*
X5356719Y593276D01*
X4906719Y143276D02*
G01*
X4906719Y543276D01*
X5356719Y93276D02*
G01*
X4956719Y93276D01*
X5406719Y543276D02*
G01*
X5406719Y143276D01*
X6756722Y1193276D02*
G01*
X7156722Y1193276D01*
X6706722Y743276D02*
G01*
X6706722Y1143276D01*
X7156722Y693276D02*
G01*
X6756722Y693276D01*
X7206722Y1143276D02*
G01*
X7206722Y743276D01*
X6156722Y1193276D02*
G01*
X6556722Y1193276D01*
X6106722Y743276D02*
G01*
X6106722Y1143276D01*
X6556722Y693276D02*
G01*
X6156722Y693276D01*
X6606722Y1143276D02*
G01*
X6606722Y743276D01*
X5556719Y1193276D02*
G01*
X5956722Y1193276D01*
X5506719Y743276D02*
G01*
X5506719Y1143276D01*
X5956722Y693276D02*
G01*
X5556719Y693276D01*
X6006722Y1143276D02*
G01*
X6006722Y743276D01*
X4954480Y1195518D02*
G01*
X5354480Y1195518D01*
X4904480Y745518D02*
G01*
X4904480Y1145518D01*
X5354480Y695518D02*
G01*
X4954480Y695518D01*
X5404480Y1145518D02*
G01*
X5404480Y745518D01*
X6754480Y1795518D02*
G01*
X7154480Y1795518D01*
X6704480Y1345518D02*
G01*
X6704480Y1745518D01*
X7154480Y1295518D02*
G01*
X6754480Y1295518D01*
X7204480Y1745518D02*
G01*
X7204480Y1345518D01*
X6154480Y1795518D02*
G01*
X6554480Y1795518D01*
X6104480Y1345518D02*
G01*
X6104480Y1745518D01*
X6554480Y1295518D02*
G01*
X6154480Y1295518D01*
X6604480Y1745518D02*
G01*
X6604480Y1345518D01*
X5554480Y1795518D02*
G01*
X5954480Y1795518D01*
X5504480Y1345518D02*
G01*
X5504480Y1745518D01*
X5954480Y1295518D02*
G01*
X5554480Y1295518D01*
X6004480Y1745518D02*
G01*
X6004480Y1345518D01*
X4954480Y1795518D02*
G01*
X5354480Y1795518D01*
X4904480Y1345518D02*
G01*
X4904480Y1745518D01*
X5354480Y1295518D02*
G01*
X4954480Y1295518D01*
X5404480Y1745518D02*
G01*
X5404480Y1345518D01*
X6754480Y2395518D02*
G01*
X7154480Y2395518D01*
X6704480Y1945518D02*
G01*
X6704480Y2345518D01*
X7154480Y1895518D02*
G01*
X6754480Y1895518D01*
X7204480Y2345518D02*
G01*
X7204480Y1945518D01*
X6154480Y2395518D02*
G01*
X6554480Y2395518D01*
X6104480Y1945518D02*
G01*
X6104480Y2345518D01*
X6554480Y1895518D02*
G01*
X6154480Y1895518D01*
X6604480Y2345518D02*
G01*
X6604480Y1945518D01*
X5554480Y2395518D02*
G01*
X5954480Y2395518D01*
X5504480Y1945518D02*
G01*
X5504480Y2345518D01*
X5954480Y1895518D02*
G01*
X5554480Y1895518D01*
X6004480Y2345518D02*
G01*
X6004480Y1945518D01*
X4952240Y2397759D02*
G01*
X5352240Y2397759D01*
X5352240Y1897759D02*
G01*
X4952240Y1897759D01*
X5402240Y2347759D02*
G01*
X5402240Y1947759D01*
X4356722Y593276D02*
G01*
X4756722Y593276D01*
X4306722Y143276D02*
G01*
X4306722Y543276D01*
X4756722Y93276D02*
G01*
X4356722Y93276D01*
X4806722Y543276D02*
G01*
X4806722Y143276D01*
X3756721Y593276D02*
G01*
X4156721Y593276D01*
X3706721Y143276D02*
G01*
X3706721Y543276D01*
X4156721Y93276D02*
G01*
X3756721Y93276D01*
X4206722Y543276D02*
G01*
X4206722Y143276D01*
X3156719Y593276D02*
G01*
X3556721Y593276D01*
X3106719Y143276D02*
G01*
X3106719Y543276D01*
X3556721Y93276D02*
G01*
X3156719Y93276D01*
X3606721Y543276D02*
G01*
X3606721Y143276D01*
X2556719Y593276D02*
G01*
X2956719Y593276D01*
X2506719Y143276D02*
G01*
X2506719Y543276D01*
X2956719Y93276D02*
G01*
X2556719Y93276D01*
X3006719Y543276D02*
G01*
X3006719Y143276D01*
X4356722Y1193276D02*
G01*
X4756722Y1193276D01*
X4306722Y743276D02*
G01*
X4306722Y1143276D01*
X4756722Y693276D02*
G01*
X4356722Y693276D01*
X4806722Y1143276D02*
G01*
X4806722Y743276D01*
X3756721Y1193276D02*
G01*
X4156721Y1193276D01*
X3706721Y743276D02*
G01*
X3706721Y1143276D01*
X4156721Y693276D02*
G01*
X3756721Y693276D01*
X4206722Y1143276D02*
G01*
X4206722Y743276D01*
X3156719Y1193276D02*
G01*
X3556721Y1193276D01*
X3106719Y743276D02*
G01*
X3106719Y1143276D01*
X3556721Y693276D02*
G01*
X3156719Y693276D01*
X3606721Y1143276D02*
G01*
X3606721Y743276D01*
X2554480Y1195518D02*
G01*
X2954480Y1195518D01*
X2504480Y745518D02*
G01*
X2504480Y1145518D01*
X2954480Y695518D02*
G01*
X2554480Y695518D01*
X3004480Y1145518D02*
G01*
X3004480Y745518D01*
X4354480Y1795518D02*
G01*
X4754480Y1795518D01*
X4304480Y1345518D02*
G01*
X4304480Y1745518D01*
X4754480Y1295518D02*
G01*
X4354480Y1295518D01*
X4804480Y1745518D02*
G01*
X4804480Y1345518D01*
X3754480Y1795518D02*
G01*
X4154480Y1795518D01*
X3704480Y1345518D02*
G01*
X3704480Y1745518D01*
X4154480Y1295518D02*
G01*
X3754480Y1295518D01*
X4204480Y1745518D02*
G01*
X4204480Y1345518D01*
X3154480Y1795518D02*
G01*
X3554480Y1795518D01*
X3104480Y1345518D02*
G01*
X3104480Y1745518D01*
X3554480Y1295518D02*
G01*
X3154480Y1295518D01*
X3604480Y1745518D02*
G01*
X3604480Y1345518D01*
X2554480Y1795518D02*
G01*
X2954480Y1795518D01*
X2504480Y1345518D02*
G01*
X2504480Y1745518D01*
X2954480Y1295518D02*
G01*
X2554480Y1295518D01*
X3004480Y1745518D02*
G01*
X3004480Y1345518D01*
X4354480Y2395518D02*
G01*
X4754480Y2395518D01*
X4304480Y1945518D02*
G01*
X4304480Y2345518D01*
X4754480Y1895518D02*
G01*
X4354480Y1895518D01*
X4804480Y2345518D02*
G01*
X4804480Y1945518D01*
X3754480Y2395518D02*
G01*
X4154480Y2395518D01*
X3704480Y1945518D02*
G01*
X3704480Y2345518D01*
X4154480Y1895518D02*
G01*
X3754480Y1895518D01*
X4204480Y2345518D02*
G01*
X4204480Y1945518D01*
X3154480Y2395518D02*
G01*
X3554480Y2395518D01*
X3104480Y1945518D02*
G01*
X3104480Y2345518D01*
X3554480Y1895518D02*
G01*
X3154480Y1895518D01*
X3604480Y2345518D02*
G01*
X3604480Y1945518D01*
X2552240Y2397759D02*
G01*
X2952240Y2397759D01*
X2502240Y1947759D02*
G01*
X2502240Y2347759D01*
X2952240Y1897759D02*
G01*
X2552240Y1897759D01*
X3002240Y2347759D02*
G01*
X3002240Y1947759D01*
X1954480Y595518D02*
G01*
X2354480Y595518D01*
X1904480Y145518D02*
G01*
X1904480Y545518D01*
X2354480Y95518D02*
G01*
X1954480Y95518D01*
X2404480Y545518D02*
G01*
X2404480Y145518D01*
X1354480Y595518D02*
G01*
X1754480Y595518D01*
X1304480Y145518D02*
G01*
X1304480Y545518D01*
X1754480Y95518D02*
G01*
X1354480Y95518D01*
X1804480Y545518D02*
G01*
X1804480Y145518D01*
X754481Y595518D02*
G01*
X1154480Y595518D01*
X704481Y145518D02*
G01*
X704481Y545518D01*
X1154480Y95518D02*
G01*
X754481Y95518D01*
X1204480Y545518D02*
G01*
X1204480Y145518D01*
X154481Y595518D02*
G01*
X554481Y595518D01*
X104481Y145518D02*
G01*
X104481Y545518D01*
X554481Y95518D02*
G01*
X154481Y95518D01*
X604481Y545518D02*
G01*
X604481Y145518D01*
X1954480Y1195518D02*
G01*
X2354480Y1195518D01*
X1904480Y745518D02*
G01*
X1904480Y1145518D01*
X2354480Y695518D02*
G01*
X1954480Y695518D01*
X2404480Y1145518D02*
G01*
X2404480Y745518D01*
X1354480Y1195518D02*
G01*
X1754480Y1195518D01*
X1304480Y745518D02*
G01*
X1304480Y1145518D01*
X1754480Y695518D02*
G01*
X1354480Y695518D01*
X1804480Y1145518D02*
G01*
X1804480Y745518D01*
X754481Y1195518D02*
G01*
X1154480Y1195518D01*
X704481Y745518D02*
G01*
X704481Y1145518D01*
X1154480Y695518D02*
G01*
X754481Y695518D01*
X1204480Y1145518D02*
G01*
X1204480Y745518D01*
X152240Y1197759D02*
G01*
X552240Y1197759D01*
X102240Y747759D02*
G01*
X102240Y1147759D01*
X552240Y697759D02*
G01*
X152240Y697759D01*
X602240Y1147759D02*
G01*
X602240Y747759D01*
X1952240Y1797759D02*
G01*
X2352240Y1797759D01*
X1902240Y1347759D02*
G01*
X1902240Y1747759D01*
X2352240Y1297759D02*
G01*
X1952240Y1297759D01*
X2402240Y1747759D02*
G01*
X2402240Y1347759D01*
X1352240Y1797759D02*
G01*
X1752240Y1797759D01*
X1302240Y1347759D02*
G01*
X1302240Y1747759D01*
X1752240Y1297759D02*
G01*
X1352240Y1297759D01*
X1802240Y1747759D02*
G01*
X1802240Y1347759D01*
X752240Y1797759D02*
G01*
X1152240Y1797759D01*
X702240Y1347759D02*
G01*
X702240Y1747759D01*
X1152240Y1297759D02*
G01*
X752240Y1297759D01*
X1202240Y1747759D02*
G01*
X1202240Y1347759D01*
X152240Y1797759D02*
G01*
X552240Y1797759D01*
X102240Y1347759D02*
G01*
X102240Y1747759D01*
X552240Y1297759D02*
G01*
X152240Y1297759D01*
X602240Y1747759D02*
G01*
X602240Y1347759D01*
X1952240Y2397759D02*
G01*
X2352240Y2397759D01*
X1902240Y1947759D02*
G01*
X1902240Y2347759D01*
X2352240Y1897759D02*
G01*
X1952240Y1897759D01*
X2402240Y2347759D02*
G01*
X2402240Y1947759D01*
X1352240Y2397759D02*
G01*
X1752240Y2397759D01*
X1302240Y1947759D02*
G01*
X1302240Y2347759D01*
X1752240Y1897759D02*
G01*
X1352240Y1897759D01*
X1802240Y2347759D02*
G01*
X1802240Y1947759D01*
X752240Y2397759D02*
G01*
X1152240Y2397759D01*
X702240Y1947759D02*
G01*
X702240Y2347759D01*
X1152240Y1897759D02*
G01*
X752240Y1897759D01*
X1202240Y2347759D02*
G01*
X1202240Y1947759D01*
X550000Y1900000D02*
G01*
X150000Y1900000D01*
G75*
G01*
X549974Y1900027D02*
G03*
X599974Y1950027I2268J47732D01*
G75*
G01*
X150027Y1900027D02*
G02*
X100027Y1950027I-2268J47732D01*
G75*
G01*
X702268Y2347732D02*
G02*
X752268Y2397732I47732J2268D01*
G75*
G01*
X752267Y1897786D02*
G02*
X702267Y1947786I-2268J47732D01*
G75*
G01*
X1152214Y1897786D02*
G03*
X1202214Y1947786I2268J47732D01*
G75*
G01*
X1202214Y2347732D02*
G03*
X1152214Y2397732I-47732J2268D01*
G75*
G01*
X1302268Y2347732D02*
G02*
X1352268Y2397732I47732J2268D01*
G75*
G01*
X1352267Y1897786D02*
G02*
X1302267Y1947786I-2268J47732D01*
G75*
G01*
X1752214Y1897786D02*
G03*
X1802214Y1947786I2268J47732D01*
G75*
G01*
X1802214Y2347732D02*
G03*
X1752214Y2397732I-47732J2268D01*
G75*
G01*
X1902268Y2347732D02*
G02*
X1952268Y2397732I47732J2268D01*
G75*
G01*
X1952267Y1897786D02*
G02*
X1902267Y1947786I-2268J47732D01*
G75*
G01*
X2352214Y1897786D02*
G03*
X2402214Y1947786I2268J47732D01*
G75*
G01*
X2402214Y2347732D02*
G03*
X2352214Y2397732I-47732J2268D01*
G75*
G01*
X102268Y1747732D02*
G02*
X152268Y1797732I47732J2268D01*
G75*
G01*
X152267Y1297786D02*
G02*
X102267Y1347786I-2268J47732D01*
G75*
G01*
X552214Y1297786D02*
G03*
X602214Y1347786I2268J47732D01*
G75*
G01*
X602214Y1747732D02*
G03*
X552214Y1797732I-47732J2268D01*
G75*
G01*
X702268Y1747732D02*
G02*
X752268Y1797732I47732J2268D01*
G75*
G01*
X752267Y1297786D02*
G02*
X702267Y1347786I-2268J47732D01*
G75*
G01*
X1152214Y1297786D02*
G03*
X1202214Y1347786I2268J47732D01*
G75*
G01*
X1202214Y1747732D02*
G03*
X1152214Y1797732I-47732J2268D01*
G75*
G01*
X1302268Y1747732D02*
G02*
X1352268Y1797732I47732J2268D01*
G75*
G01*
X1352267Y1297786D02*
G02*
X1302267Y1347786I-2268J47732D01*
G75*
G01*
X1752214Y1297786D02*
G03*
X1802214Y1347786I2268J47732D01*
G75*
G01*
X1802214Y1747732D02*
G03*
X1752214Y1797732I-47732J2268D01*
G75*
G01*
X1902268Y1747732D02*
G02*
X1952268Y1797732I47732J2268D01*
G75*
G01*
X1952267Y1297786D02*
G02*
X1902267Y1347786I-2268J47732D01*
G75*
G01*
X2352214Y1297786D02*
G03*
X2402214Y1347786I2268J47732D01*
G75*
G01*
X2402214Y1747732D02*
G03*
X2352214Y1797732I-47732J2268D01*
G75*
G01*
X2404454Y545491D02*
G03*
X2354454Y595491I-47732J2268D01*
G75*
G01*
X2354454Y95545D02*
G03*
X2404454Y145545I2268J47732D01*
G75*
G01*
X1954507Y95545D02*
G02*
X1904507Y145545I-2268J47732D01*
G75*
G01*
X1904508Y545491D02*
G02*
X1954508Y595491I47732J2268D01*
G75*
G01*
X1804454Y545491D02*
G03*
X1754454Y595491I-47732J2268D01*
G75*
G01*
X1754454Y95545D02*
G03*
X1804454Y145545I2268J47732D01*
G75*
G01*
X1354507Y95545D02*
G02*
X1304507Y145545I-2268J47732D01*
G75*
G01*
X1304508Y545491D02*
G02*
X1354508Y595491I47732J2268D01*
G75*
G01*
X1204454Y545491D02*
G03*
X1154454Y595491I-47732J2268D01*
G75*
G01*
X1154454Y95545D02*
G03*
X1204454Y145545I2268J47732D01*
G75*
G01*
X754507Y95545D02*
G02*
X704507Y145545I-2268J47732D01*
G75*
G01*
X704508Y545491D02*
G02*
X754508Y595491I47732J2268D01*
G75*
G01*
X604454Y545491D02*
G03*
X554454Y595491I-47732J2268D01*
G75*
G01*
X554454Y95545D02*
G03*
X604454Y145545I2268J47732D01*
G75*
G01*
X154507Y95545D02*
G02*
X104507Y145545I-2268J47732D01*
G75*
G01*
X104508Y545491D02*
G02*
X154508Y595491I47732J2268D01*
G75*
G01*
X2404454Y1145491D02*
G03*
X2354454Y1195491I-47732J2268D01*
G75*
G01*
X2354454Y695545D02*
G03*
X2404454Y745545I2268J47732D01*
G75*
G01*
X1954507Y695545D02*
G02*
X1904507Y745545I-2268J47732D01*
G75*
G01*
X1904508Y1145491D02*
G02*
X1954508Y1195491I47732J2268D01*
G75*
G01*
X1804454Y1145491D02*
G03*
X1754454Y1195491I-47732J2268D01*
G75*
G01*
X1754454Y695545D02*
G03*
X1804454Y745545I2268J47732D01*
G75*
G01*
X1354507Y695545D02*
G02*
X1304507Y745545I-2268J47732D01*
G75*
G01*
X1304508Y1145491D02*
G02*
X1354508Y1195491I47732J2268D01*
G75*
G01*
X1204454Y1145491D02*
G03*
X1154454Y1195491I-47732J2268D01*
G75*
G01*
X1154454Y695545D02*
G03*
X1204454Y745545I2268J47732D01*
G75*
G01*
X754507Y695545D02*
G02*
X704507Y745545I-2268J47732D01*
G75*
G01*
X704508Y1145491D02*
G02*
X754508Y1195491I47732J2268D01*
G75*
G01*
X102268Y1147732D02*
G02*
X152268Y1197732I47732J2268D01*
G75*
G01*
X152267Y697786D02*
G02*
X102267Y747786I-2268J47732D01*
G75*
G01*
X602214Y1147732D02*
G03*
X552214Y1197732I-47732J2268D01*
G75*
G01*
X3004454Y1145491D02*
G03*
X2954454Y1195491I-47732J2268D01*
G75*
G01*
X2954454Y695545D02*
G03*
X3004454Y745545I2268J47732D01*
G75*
G01*
X2554507Y695545D02*
G02*
X2504507Y745545I-2268J47732D01*
G75*
G01*
X2504508Y1145491D02*
G02*
X2554508Y1195491I47732J2268D01*
G75*
G01*
X3106748Y1143250D02*
G02*
X3156748Y1193250I47732J2268D01*
G75*
G01*
X3156747Y693304D02*
G02*
X3106747Y743304I-2268J47732D01*
G75*
G01*
X3556694Y693304D02*
G03*
X3606694Y743304I2268J47732D01*
G75*
G01*
X3606694Y1143250D02*
G03*
X3556694Y1193250I-47732J2268D01*
G75*
G01*
X3706748Y1143250D02*
G02*
X3756748Y1193250I47732J2268D01*
G75*
G01*
X3756747Y693304D02*
G02*
X3706747Y743304I-2268J47732D01*
G75*
G01*
X4156694Y693304D02*
G03*
X4206694Y743304I2268J47732D01*
G75*
G01*
X4206694Y1143250D02*
G03*
X4156694Y1193250I-47732J2268D01*
G75*
G01*
X4306748Y1143250D02*
G02*
X4356748Y1193250I47732J2268D01*
G75*
G01*
X4356747Y693304D02*
G02*
X4306747Y743304I-2268J47732D01*
G75*
G01*
X4756694Y693304D02*
G03*
X4806694Y743304I2268J47732D01*
G75*
G01*
X4806694Y1143250D02*
G03*
X4756694Y1193250I-47732J2268D01*
G75*
G01*
X2506748Y543250D02*
G02*
X2556748Y593250I47732J2268D01*
G75*
G01*
X2556747Y93304D02*
G02*
X2506747Y143304I-2268J47732D01*
G75*
G01*
X2956694Y93304D02*
G03*
X3006694Y143304I2268J47732D01*
G75*
G01*
X3006694Y543250D02*
G03*
X2956694Y593250I-47732J2268D01*
G75*
G01*
X3106748Y543250D02*
G02*
X3156748Y593250I47732J2268D01*
G75*
G01*
X3156747Y93304D02*
G02*
X3106747Y143304I-2268J47732D01*
G75*
G01*
X3556694Y93304D02*
G03*
X3606694Y143304I2268J47732D01*
G75*
G01*
X3606694Y543250D02*
G03*
X3556694Y593250I-47732J2268D01*
G75*
G01*
X3706748Y543250D02*
G02*
X3756748Y593250I47732J2268D01*
G75*
G01*
X3756747Y93304D02*
G02*
X3706747Y143304I-2268J47732D01*
G75*
G01*
X4156694Y93304D02*
G03*
X4206694Y143304I2268J47732D01*
G75*
G01*
X4206694Y543250D02*
G03*
X4156694Y593250I-47732J2268D01*
G75*
G01*
X4306748Y543250D02*
G02*
X4356748Y593250I47732J2268D01*
G75*
G01*
X4356747Y93304D02*
G02*
X4306747Y143304I-2268J47732D01*
G75*
G01*
X4756694Y93304D02*
G03*
X4806694Y143304I2268J47732D01*
G75*
G01*
X4806694Y543250D02*
G03*
X4756694Y593250I-47732J2268D01*
G75*
G01*
X4804454Y1745491D02*
G03*
X4754454Y1795491I-47732J2268D01*
G75*
G01*
X4754454Y1295545D02*
G03*
X4804454Y1345545I2268J47732D01*
G75*
G01*
X4354507Y1295545D02*
G02*
X4304507Y1345545I-2268J47732D01*
G75*
G01*
X4304508Y1745491D02*
G02*
X4354508Y1795491I47732J2268D01*
G75*
G01*
X4204454Y1745491D02*
G03*
X4154454Y1795491I-47732J2268D01*
G75*
G01*
X4154454Y1295545D02*
G03*
X4204454Y1345545I2268J47732D01*
G75*
G01*
X3754507Y1295545D02*
G02*
X3704507Y1345545I-2268J47732D01*
G75*
G01*
X3704508Y1745491D02*
G02*
X3754508Y1795491I47732J2268D01*
G75*
G01*
X3604454Y1745491D02*
G03*
X3554454Y1795491I-47732J2268D01*
G75*
G01*
X3554454Y1295545D02*
G03*
X3604454Y1345545I2268J47732D01*
G75*
G01*
X3154507Y1295545D02*
G02*
X3104507Y1345545I-2268J47732D01*
G75*
G01*
X3104508Y1745491D02*
G02*
X3154508Y1795491I47732J2268D01*
G75*
G01*
X3004454Y1745491D02*
G03*
X2954454Y1795491I-47732J2268D01*
G75*
G01*
X2954454Y1295545D02*
G03*
X3004454Y1345545I2268J47732D01*
G75*
G01*
X2554507Y1295545D02*
G02*
X2504507Y1345545I-2268J47732D01*
G75*
G01*
X2504508Y1745491D02*
G02*
X2554508Y1795491I47732J2268D01*
G75*
G01*
X4804454Y2345491D02*
G03*
X4754454Y2395491I-47732J2268D01*
G75*
G01*
X4754454Y1895545D02*
G03*
X4804454Y1945545I2268J47732D01*
G75*
G01*
X4354507Y1895545D02*
G02*
X4304507Y1945545I-2268J47732D01*
G75*
G01*
X4304508Y2345491D02*
G02*
X4354508Y2395491I47732J2268D01*
G75*
G01*
X4204454Y2345491D02*
G03*
X4154454Y2395491I-47732J2268D01*
G75*
G01*
X4154454Y1895545D02*
G03*
X4204454Y1945545I2268J47732D01*
G75*
G01*
X3754507Y1895545D02*
G02*
X3704507Y1945545I-2268J47732D01*
G75*
G01*
X3704508Y2345491D02*
G02*
X3754508Y2395491I47732J2268D01*
G75*
G01*
X3604454Y2345491D02*
G03*
X3554454Y2395491I-47732J2268D01*
G75*
G01*
X3554454Y1895545D02*
G03*
X3604454Y1945545I2268J47732D01*
G75*
G01*
X3154507Y1895545D02*
G02*
X3104507Y1945545I-2268J47732D01*
G75*
G01*
X3104508Y2345491D02*
G02*
X3154508Y2395491I47732J2268D01*
G75*
G01*
X2502268Y2347732D02*
G02*
X2552268Y2397732I47732J2268D01*
G75*
G01*
X2552267Y1897786D02*
G02*
X2502267Y1947786I-2268J47732D01*
G75*
G01*
X2952214Y1897786D02*
G03*
X3002214Y1947786I2268J47732D01*
G75*
G01*
X3002214Y2347732D02*
G03*
X2952214Y2397732I-47732J2268D01*
G75*
G01*
X5404454Y1145491D02*
G03*
X5354454Y1195491I-47732J2268D01*
G75*
G01*
X5354454Y695545D02*
G03*
X5404454Y745545I2268J47732D01*
G75*
G01*
X4954507Y695545D02*
G02*
X4904507Y745545I-2268J47732D01*
G75*
G01*
X4904508Y1145491D02*
G02*
X4954508Y1195491I47732J2268D01*
G75*
G01*
X5506748Y1143250D02*
G02*
X5556748Y1193250I47732J2268D01*
G75*
G01*
X5556747Y693304D02*
G02*
X5506747Y743304I-2268J47732D01*
G75*
G01*
X5956694Y693304D02*
G03*
X6006694Y743304I2268J47732D01*
G75*
G01*
X6006694Y1143250D02*
G03*
X5956694Y1193250I-47732J2268D01*
G75*
G01*
X6106748Y1143250D02*
G02*
X6156748Y1193250I47732J2268D01*
G75*
G01*
X6156747Y693304D02*
G02*
X6106747Y743304I-2268J47732D01*
G75*
G01*
X6556694Y693304D02*
G03*
X6606694Y743304I2268J47732D01*
G75*
G01*
X6606694Y1143250D02*
G03*
X6556694Y1193250I-47732J2268D01*
G75*
G01*
X6706748Y1143250D02*
G02*
X6756748Y1193250I47732J2268D01*
G75*
G01*
X6756747Y693304D02*
G02*
X6706747Y743304I-2268J47732D01*
G75*
G01*
X7156694Y693304D02*
G03*
X7206694Y743304I2268J47732D01*
G75*
G01*
X7206694Y1143250D02*
G03*
X7156694Y1193250I-47732J2268D01*
G75*
G01*
X4906748Y543250D02*
G02*
X4956748Y593250I47732J2268D01*
G75*
G01*
X4956747Y93304D02*
G02*
X4906747Y143304I-2268J47732D01*
G75*
G01*
X5356694Y93304D02*
G03*
X5406694Y143304I2268J47732D01*
G75*
G01*
X5406694Y543250D02*
G03*
X5356694Y593250I-47732J2268D01*
G75*
G01*
X5506748Y543250D02*
G02*
X5556748Y593250I47732J2268D01*
G75*
G01*
X5556747Y93304D02*
G02*
X5506747Y143304I-2268J47732D01*
G75*
G01*
X5956694Y93304D02*
G03*
X6006694Y143304I2268J47732D01*
G75*
G01*
X6006694Y543250D02*
G03*
X5956694Y593250I-47732J2268D01*
G75*
G01*
X6106748Y543250D02*
G02*
X6156748Y593250I47732J2268D01*
G75*
G01*
X6156747Y93304D02*
G02*
X6106747Y143304I-2268J47732D01*
G75*
G01*
X6556694Y93304D02*
G03*
X6606694Y143304I2268J47732D01*
G75*
G01*
X6606694Y543250D02*
G03*
X6556694Y593250I-47732J2268D01*
G75*
G01*
X6706748Y543250D02*
G02*
X6756748Y593250I47732J2268D01*
G75*
G01*
X6756747Y93304D02*
G02*
X6706747Y143304I-2268J47732D01*
G75*
G01*
X7156694Y93304D02*
G03*
X7206694Y143304I2268J47732D01*
G75*
G01*
X7206694Y543250D02*
G03*
X7156694Y593250I-47732J2268D01*
G75*
G01*
X7204454Y1745491D02*
G03*
X7154454Y1795491I-47732J2268D01*
G75*
G01*
X7154454Y1295545D02*
G03*
X7204454Y1345545I2268J47732D01*
G75*
G01*
X6754507Y1295545D02*
G02*
X6704507Y1345545I-2268J47732D01*
G75*
G01*
X6704508Y1745491D02*
G02*
X6754508Y1795491I47732J2268D01*
G75*
G01*
X6604454Y1745491D02*
G03*
X6554454Y1795491I-47732J2268D01*
G75*
G01*
X6554454Y1295545D02*
G03*
X6604454Y1345545I2268J47732D01*
G75*
G01*
X6154507Y1295545D02*
G02*
X6104507Y1345545I-2268J47732D01*
G75*
G01*
X6104508Y1745491D02*
G02*
X6154508Y1795491I47732J2268D01*
G75*
G01*
X6004454Y1745491D02*
G03*
X5954454Y1795491I-47732J2268D01*
G75*
G01*
X5954454Y1295545D02*
G03*
X6004454Y1345545I2268J47732D01*
G75*
G01*
X5554507Y1295545D02*
G02*
X5504507Y1345545I-2268J47732D01*
G75*
G01*
X5504508Y1745491D02*
G02*
X5554508Y1795491I47732J2268D01*
G75*
G01*
X5404454Y1745491D02*
G03*
X5354454Y1795491I-47732J2268D01*
G75*
G01*
X5354454Y1295545D02*
G03*
X5404454Y1345545I2268J47732D01*
G75*
G01*
X4954507Y1295545D02*
G02*
X4904507Y1345545I-2268J47732D01*
G75*
G01*
X4904508Y1745491D02*
G02*
X4954508Y1795491I47732J2268D01*
G75*
G01*
X7204454Y2345491D02*
G03*
X7154454Y2395491I-47732J2268D01*
G75*
G01*
X7154454Y1895545D02*
G03*
X7204454Y1945545I2268J47732D01*
G75*
G01*
X6754507Y1895545D02*
G02*
X6704507Y1945545I-2268J47732D01*
G75*
G01*
X6704508Y2345491D02*
G02*
X6754508Y2395491I47732J2268D01*
G75*
G01*
X6604454Y2345491D02*
G03*
X6554454Y2395491I-47732J2268D01*
G75*
G01*
X6554454Y1895545D02*
G03*
X6604454Y1945545I2268J47732D01*
G75*
G01*
X6154507Y1895545D02*
G02*
X6104507Y1945545I-2268J47732D01*
G75*
G01*
X6104508Y2345491D02*
G02*
X6154508Y2395491I47732J2268D01*
G75*
G01*
X6004454Y2345491D02*
G03*
X5954454Y2395491I-47732J2268D01*
G75*
G01*
X5954454Y1895545D02*
G03*
X6004454Y1945545I2268J47732D01*
G75*
G01*
X5554507Y1895545D02*
G02*
X5504507Y1945545I-2268J47732D01*
G75*
G01*
X5504508Y2345491D02*
G02*
X5554508Y2395491I47732J2268D01*
G75*
G01*
X4902268Y2347732D02*
G02*
X4952268Y2397732I47732J2268D01*
G75*
G01*
X4952267Y1897786D02*
G02*
X4902267Y1947786I-2268J47732D01*
G75*
G01*
X5352214Y1897786D02*
G03*
X5402214Y1947786I2268J47732D01*
G75*
G01*
X5402214Y2347732D02*
G03*
X5352214Y2397732I-47732J2268D01*
G75*
G01*
X552214Y697786D02*
G03*
X602214Y747786I2268J47732D01*
G75*
G01*
X100028Y2349973D02*
G02*
X150028Y2399973I47732J2268D01*
G75*
G01*
X599974Y2349973D02*
G03*
X549974Y2399973I-47732J2268D01*

%LPD*%
M02*
