G04 Layer: BoardOutlineLayer*
G04 EasyEDA v6.5.39, 2024-01-08 11:37:38*
G04 7ed59f8bcec2443c8966aeb1967f862e,24315905b9734375b2ccc5c6aeea7757,10*
G04 Gerber Generator version 0.2*
G04 Scale: 100 percent, Rotated: No, Reflected: No *
G04 Dimensions in inches *
G04 leading zeros omitted , absolute positions ,3 integer and 6 decimal *
%FSLAX36Y36*%
%MOIN*%

%ADD10C,0.0050*%
%ADD11C,0.0020*%
D10*
X6587500Y1937500D02*
G01*
X6587500Y2287500D01*
X6637500Y2337500D02*
G01*
X6987500Y2337500D01*
X6987500Y1887500D02*
G01*
X6637500Y1887500D01*
X7037500Y2287500D02*
G01*
X7037500Y1937500D01*
X6000000Y1937500D02*
G01*
X6000000Y2287500D01*
X6050000Y2337500D02*
G01*
X6400000Y2337500D01*
X6400000Y1887500D02*
G01*
X6050000Y1887500D01*
X6450000Y2287500D02*
G01*
X6450000Y1937500D01*
X5412500Y1937500D02*
G01*
X5412500Y2287500D01*
X5462500Y2337500D02*
G01*
X5812500Y2337500D01*
X5812500Y1887500D02*
G01*
X5462500Y1887500D01*
X5862500Y2287500D02*
G01*
X5862500Y1937500D01*
X4825000Y1937500D02*
G01*
X4825000Y2287500D01*
X4875000Y2337500D02*
G01*
X5225000Y2337500D01*
X5225000Y1887500D02*
G01*
X4875000Y1887500D01*
X5275000Y2287500D02*
G01*
X5275000Y1937500D01*
X4237500Y1937500D02*
G01*
X4237500Y2287500D01*
X4287500Y2337500D02*
G01*
X4637500Y2337500D01*
X4637500Y1887500D02*
G01*
X4287500Y1887500D01*
X4687500Y2287500D02*
G01*
X4687500Y1937500D01*
X3650000Y1937500D02*
G01*
X3650000Y2287500D01*
X3700000Y2337500D02*
G01*
X4050000Y2337500D01*
X4050000Y1887500D02*
G01*
X3700000Y1887500D01*
X4100000Y2287500D02*
G01*
X4100000Y1937500D01*
X3062500Y1937500D02*
G01*
X3062500Y2287500D01*
X3112500Y2337500D02*
G01*
X3462500Y2337500D01*
X3462500Y1887500D02*
G01*
X3112500Y1887500D01*
X3512500Y2287500D02*
G01*
X3512500Y1937500D01*
X2475000Y1937500D02*
G01*
X2475000Y2287500D01*
X2525000Y2337500D02*
G01*
X2875000Y2337500D01*
X2875000Y1887500D02*
G01*
X2525000Y1887500D01*
X2925000Y2287500D02*
G01*
X2925000Y1937500D01*
X1887500Y1937500D02*
G01*
X1887500Y2287500D01*
X1937500Y2337500D02*
G01*
X2287500Y2337500D01*
X2287500Y1887500D02*
G01*
X1937500Y1887500D01*
X2337500Y2287500D02*
G01*
X2337500Y1937500D01*
X1300000Y1937500D02*
G01*
X1300000Y2287500D01*
X1350000Y2337500D02*
G01*
X1700000Y2337500D01*
X1700000Y1887500D02*
G01*
X1350000Y1887500D01*
X1750000Y2287500D02*
G01*
X1750000Y1937500D01*
X712501Y1937500D02*
G01*
X712501Y2287500D01*
X762500Y2337500D02*
G01*
X1112500Y2337500D01*
X1112500Y1887500D02*
G01*
X762500Y1887500D01*
X1162500Y2287500D02*
G01*
X1162500Y1937500D01*
X125000Y1937500D02*
G01*
X125000Y2287500D01*
X175000Y2337500D02*
G01*
X525000Y2337500D01*
X525000Y1887500D02*
G01*
X175000Y1887500D01*
X575000Y2287500D02*
G01*
X575000Y1937500D01*
X6587502Y1350000D02*
G01*
X6587502Y1700000D01*
X6637502Y1750000D02*
G01*
X6987502Y1750000D01*
X6987502Y1300000D02*
G01*
X6637502Y1300000D01*
X7037502Y1700000D02*
G01*
X7037502Y1350000D01*
X6000002Y1350000D02*
G01*
X6000002Y1700000D01*
X6050002Y1750000D02*
G01*
X6400002Y1750000D01*
X6400002Y1300000D02*
G01*
X6050002Y1300000D01*
X6450002Y1700000D02*
G01*
X6450002Y1350000D01*
X5412497Y1350000D02*
G01*
X5412497Y1700000D01*
X5462497Y1750000D02*
G01*
X5812497Y1750000D01*
X5812497Y1300000D02*
G01*
X5462497Y1300000D01*
X5862497Y1700000D02*
G01*
X5862497Y1350000D01*
X4824997Y1350000D02*
G01*
X4824997Y1700000D01*
X4874997Y1750000D02*
G01*
X5224997Y1750000D01*
X5224997Y1300000D02*
G01*
X4874997Y1300000D01*
X5274997Y1700000D02*
G01*
X5274997Y1350000D01*
X4237497Y1350000D02*
G01*
X4237497Y1700000D01*
X4287497Y1750000D02*
G01*
X4637497Y1750000D01*
X4637497Y1300000D02*
G01*
X4287497Y1300000D01*
X4687497Y1700000D02*
G01*
X4687497Y1350000D01*
X3650002Y1350000D02*
G01*
X3650002Y1700000D01*
X3700002Y1750000D02*
G01*
X4050002Y1750000D01*
X4050002Y1300000D02*
G01*
X3700002Y1300000D01*
X4100002Y1700000D02*
G01*
X4100002Y1350000D01*
X3062497Y1350000D02*
G01*
X3062497Y1700000D01*
X3112497Y1750000D02*
G01*
X3462497Y1750000D01*
X3462497Y1300000D02*
G01*
X3112497Y1300000D01*
X3512497Y1700000D02*
G01*
X3512497Y1350000D01*
X2474997Y1350000D02*
G01*
X2474997Y1700000D01*
X2524997Y1750000D02*
G01*
X2874997Y1750000D01*
X2874997Y1300000D02*
G01*
X2524997Y1300000D01*
X2924997Y1700000D02*
G01*
X2924997Y1350000D01*
X1887502Y1350000D02*
G01*
X1887502Y1700000D01*
X1937502Y1750000D02*
G01*
X2287502Y1750000D01*
X2287502Y1300000D02*
G01*
X1937502Y1300000D01*
X2337502Y1700000D02*
G01*
X2337502Y1350000D01*
X1300002Y1350000D02*
G01*
X1300002Y1700000D01*
X1350002Y1750000D02*
G01*
X1700002Y1750000D01*
X1700002Y1300000D02*
G01*
X1350002Y1300000D01*
X1750002Y1700000D02*
G01*
X1750002Y1350000D01*
X712503Y1350000D02*
G01*
X712503Y1700000D01*
X762502Y1750000D02*
G01*
X1112502Y1750000D01*
X1112502Y1300000D02*
G01*
X762502Y1300000D01*
X1162502Y1700000D02*
G01*
X1162502Y1350000D01*
X125000Y1350000D02*
G01*
X125000Y1700000D01*
X175000Y1750000D02*
G01*
X525000Y1750000D01*
X525000Y1300000D02*
G01*
X175000Y1300000D01*
X575000Y1700000D02*
G01*
X575000Y1350000D01*
X6587502Y762500D02*
G01*
X6587502Y1112500D01*
X6637502Y1162500D02*
G01*
X6987502Y1162500D01*
X6987502Y712500D02*
G01*
X6637502Y712500D01*
X7037502Y1112500D02*
G01*
X7037502Y762500D01*
X6000002Y762500D02*
G01*
X6000002Y1112500D01*
X6050002Y1162500D02*
G01*
X6400002Y1162500D01*
X6400002Y712500D02*
G01*
X6050002Y712500D01*
X6450002Y1112500D02*
G01*
X6450002Y762500D01*
X5412497Y762500D02*
G01*
X5412497Y1112500D01*
X5462497Y1162500D02*
G01*
X5812497Y1162500D01*
X5812497Y712500D02*
G01*
X5462497Y712500D01*
X5862497Y1112500D02*
G01*
X5862497Y762500D01*
X4824997Y762500D02*
G01*
X4824997Y1112500D01*
X4874997Y1162500D02*
G01*
X5224997Y1162500D01*
X5224997Y712500D02*
G01*
X4874997Y712500D01*
X5274997Y1112500D02*
G01*
X5274997Y762500D01*
X4237497Y762500D02*
G01*
X4237497Y1112500D01*
X4287497Y1162500D02*
G01*
X4637497Y1162500D01*
X4637497Y712500D02*
G01*
X4287497Y712500D01*
X4687497Y1112500D02*
G01*
X4687497Y762500D01*
X3650002Y762500D02*
G01*
X3650002Y1112500D01*
X3700002Y1162500D02*
G01*
X4050002Y1162500D01*
X4050002Y712500D02*
G01*
X3700002Y712500D01*
X4100002Y1112500D02*
G01*
X4100002Y762500D01*
X3062497Y762500D02*
G01*
X3062497Y1112500D01*
X3112497Y1162500D02*
G01*
X3462497Y1162500D01*
X3462497Y712500D02*
G01*
X3112497Y712500D01*
X3512497Y1112500D02*
G01*
X3512497Y762500D01*
X2474997Y762500D02*
G01*
X2474997Y1112500D01*
X2524997Y1162500D02*
G01*
X2874997Y1162500D01*
X2874997Y712500D02*
G01*
X2524997Y712500D01*
X2924997Y1112500D02*
G01*
X2924997Y762500D01*
X1887502Y762500D02*
G01*
X1887502Y1112500D01*
X1937502Y1162500D02*
G01*
X2287502Y1162500D01*
X2287502Y712500D02*
G01*
X1937502Y712500D01*
X2337502Y1112500D02*
G01*
X2337502Y762500D01*
X1300002Y762500D02*
G01*
X1300002Y1112500D01*
X1350002Y1162500D02*
G01*
X1700002Y1162500D01*
X1700002Y712500D02*
G01*
X1350002Y712500D01*
X1750002Y1112500D02*
G01*
X1750002Y762500D01*
X712503Y762500D02*
G01*
X712503Y1112500D01*
X762502Y1162500D02*
G01*
X1112502Y1162500D01*
X1112502Y712500D02*
G01*
X762502Y712500D01*
X1162502Y1112500D02*
G01*
X1162502Y762500D01*
X125000Y762500D02*
G01*
X125000Y1112500D01*
X175000Y1162500D02*
G01*
X525000Y1162500D01*
X525000Y712500D02*
G01*
X175000Y712500D01*
X575000Y1112500D02*
G01*
X575000Y762500D01*
X6592035Y170464D02*
G01*
X6592035Y520464D01*
X6642035Y570464D02*
G01*
X6992035Y570464D01*
X6992035Y120464D02*
G01*
X6642035Y120464D01*
X7042035Y520464D02*
G01*
X7042035Y170464D01*
X6004535Y170464D02*
G01*
X6004535Y520464D01*
X6054535Y570464D02*
G01*
X6404535Y570464D01*
X6404535Y120464D02*
G01*
X6054535Y120464D01*
X6454535Y520464D02*
G01*
X6454535Y170464D01*
X5417035Y170464D02*
G01*
X5417035Y520464D01*
X5467035Y570464D02*
G01*
X5817035Y570464D01*
X5817035Y120464D02*
G01*
X5467035Y120464D01*
X5867035Y520464D02*
G01*
X5867035Y170464D01*
X4829535Y170464D02*
G01*
X4829535Y520464D01*
X4879535Y570464D02*
G01*
X5229535Y570464D01*
X5229535Y120464D02*
G01*
X4879535Y120464D01*
X5279535Y520464D02*
G01*
X5279535Y170464D01*
X4242035Y170464D02*
G01*
X4242035Y520464D01*
X4292035Y570464D02*
G01*
X4642035Y570464D01*
X4642035Y120464D02*
G01*
X4292035Y120464D01*
X4692035Y520464D02*
G01*
X4692035Y170464D01*
X3654535Y170464D02*
G01*
X3654535Y520464D01*
X3704535Y570464D02*
G01*
X4054535Y570464D01*
X4054535Y120464D02*
G01*
X3704535Y120464D01*
X4104535Y520464D02*
G01*
X4104535Y170464D01*
X3067035Y170464D02*
G01*
X3067035Y520464D01*
X3117035Y570464D02*
G01*
X3467035Y570464D01*
X3467035Y120464D02*
G01*
X3117035Y120464D01*
X3517035Y520464D02*
G01*
X3517035Y170464D01*
X2479535Y170464D02*
G01*
X2479535Y520464D01*
X2529535Y570464D02*
G01*
X2879535Y570464D01*
X2879535Y120464D02*
G01*
X2529535Y120464D01*
X2929535Y520464D02*
G01*
X2929535Y170464D01*
X1892035Y170464D02*
G01*
X1892035Y520464D01*
X1942035Y570464D02*
G01*
X2292035Y570464D01*
X2292035Y120464D02*
G01*
X1942035Y120464D01*
X2342035Y520464D02*
G01*
X2342035Y170464D01*
X1304535Y170464D02*
G01*
X1304535Y520464D01*
X1354535Y570464D02*
G01*
X1704535Y570464D01*
X1704535Y120464D02*
G01*
X1354535Y120464D01*
X1754535Y520464D02*
G01*
X1754535Y170464D01*
X1167035Y520464D02*
G01*
X1167035Y170464D01*
X717038Y170464D02*
G01*
X717038Y520464D01*
X767035Y570464D02*
G01*
X1117035Y570464D01*
X1117035Y120464D02*
G01*
X767035Y120464D01*
X129535Y170464D02*
G01*
X129535Y520464D01*
X179535Y570464D02*
G01*
X529535Y570464D01*
X529535Y120464D02*
G01*
X179535Y120464D01*
X579535Y520464D02*
G01*
X579535Y170464D01*
G75*
G01*
X575000Y2287500D02*
G03*
X525000Y2337500I-47732J2268D01*
G75*
G01*
X525000Y1887500D02*
G03*
X575000Y1937500I2268J47732D01*
G75*
G01*
X175000Y1887500D02*
G02*
X125000Y1937500I-2268J47732D01*
G75*
G01*
X125000Y2287500D02*
G02*
X175000Y2337500I47732J2268D01*
G75*
G01*
X712502Y2287500D02*
G02*
X762502Y2337500I47732J2268D01*
G75*
G01*
X762502Y1887500D02*
G02*
X712502Y1937500I-2268J47732D01*
G75*
G01*
X1112502Y1887500D02*
G03*
X1162502Y1937500I2268J47732D01*
G75*
G01*
X1162502Y2287500D02*
G03*
X1112502Y2337500I-47732J2268D01*
G75*
G01*
X1300002Y2287500D02*
G02*
X1350002Y2337500I47732J2268D01*
G75*
G01*
X1350002Y1887500D02*
G02*
X1300002Y1937500I-2268J47732D01*
G75*
G01*
X1700002Y1887500D02*
G03*
X1750002Y1937500I2268J47732D01*
G75*
G01*
X1750002Y2287500D02*
G03*
X1700002Y2337500I-47732J2268D01*
G75*
G01*
X1750002Y1700000D02*
G03*
X1700002Y1750000I-47732J2268D01*
G75*
G01*
X1700002Y1300000D02*
G03*
X1750002Y1350000I2268J47732D01*
G75*
G01*
X1350002Y1300000D02*
G02*
X1300002Y1350000I-2268J47732D01*
G75*
G01*
X1300002Y1700000D02*
G02*
X1350002Y1750000I47732J2268D01*
G75*
G01*
X1162502Y1700000D02*
G03*
X1112502Y1750000I-47732J2268D01*
G75*
G01*
X1112502Y1300000D02*
G03*
X1162502Y1350000I2268J47732D01*
G75*
G01*
X762502Y1300000D02*
G02*
X712502Y1350000I-2268J47732D01*
G75*
G01*
X712502Y1700000D02*
G02*
X762502Y1750000I47732J2268D01*
G75*
G01*
X125000Y1700000D02*
G02*
X175000Y1750000I47732J2268D01*
G75*
G01*
X175000Y1300000D02*
G02*
X125000Y1350000I-2268J47732D01*
G75*
G01*
X525000Y1300000D02*
G03*
X575000Y1350000I2268J47732D01*
G75*
G01*
X575000Y1700000D02*
G03*
X525000Y1750000I-47732J2268D01*
G75*
G01*
X579536Y520464D02*
G03*
X529536Y570464I-47732J2268D01*
G75*
G01*
X529536Y120464D02*
G03*
X579536Y170464I2268J47732D01*
G75*
G01*
X179536Y120464D02*
G02*
X129536Y170464I-2268J47732D01*
G75*
G01*
X129536Y520464D02*
G02*
X179536Y570464I47732J2268D01*
G75*
G01*
X717038Y520464D02*
G02*
X767038Y570464I47732J2268D01*
G75*
G01*
X767038Y120464D02*
G02*
X717038Y170464I-2268J47732D01*
G75*
G01*
X1117038Y120464D02*
G03*
X1167038Y170464I2268J47732D01*
G75*
G01*
X1167038Y520464D02*
G03*
X1117038Y570464I-47732J2268D01*
G75*
G01*
X1304538Y520464D02*
G02*
X1354538Y570464I47732J2268D01*
G75*
G01*
X1354538Y120464D02*
G02*
X1304538Y170464I-2268J47732D01*
G75*
G01*
X1704538Y120464D02*
G03*
X1754538Y170464I2268J47732D01*
G75*
G01*
X1754538Y520464D02*
G03*
X1704538Y570464I-47732J2268D01*
G75*
G01*
X1750002Y1112500D02*
G03*
X1700002Y1162500I-47732J2268D01*
G75*
G01*
X1700002Y712500D02*
G03*
X1750002Y762500I2268J47732D01*
G75*
G01*
X1350002Y712500D02*
G02*
X1300002Y762500I-2268J47732D01*
G75*
G01*
X1300002Y1112500D02*
G02*
X1350002Y1162500I47732J2268D01*
G75*
G01*
X1162502Y1112500D02*
G03*
X1112502Y1162500I-47732J2268D01*
G75*
G01*
X1112502Y712500D02*
G03*
X1162502Y762500I2268J47732D01*
G75*
G01*
X762502Y712500D02*
G02*
X712502Y762500I-2268J47732D01*
G75*
G01*
X712502Y1112500D02*
G02*
X762502Y1162500I47732J2268D01*
G75*
G01*
X125000Y1112500D02*
G02*
X175000Y1162500I47732J2268D01*
G75*
G01*
X175000Y712500D02*
G02*
X125000Y762500I-2268J47732D01*
G75*
G01*
X525000Y712500D02*
G03*
X575000Y762500I2268J47732D01*
G75*
G01*
X575000Y1112500D02*
G03*
X525000Y1162500I-47732J2268D01*
G75*
G01*
X2337502Y1112500D02*
G03*
X2287502Y1162500I-47732J2268D01*
G75*
G01*
X2287502Y712500D02*
G03*
X2337502Y762500I2268J47732D01*
G75*
G01*
X1937502Y712500D02*
G02*
X1887502Y762500I-2268J47732D01*
G75*
G01*
X1887502Y1112500D02*
G02*
X1937502Y1162500I47732J2268D01*
G75*
G01*
X2475000Y1112500D02*
G02*
X2525000Y1162500I47732J2268D01*
G75*
G01*
X2525000Y712500D02*
G02*
X2475000Y762500I-2268J47732D01*
G75*
G01*
X2875000Y712500D02*
G03*
X2925000Y762500I2268J47732D01*
G75*
G01*
X2925000Y1112500D02*
G03*
X2875000Y1162500I-47732J2268D01*
G75*
G01*
X3062500Y1112500D02*
G02*
X3112500Y1162500I47732J2268D01*
G75*
G01*
X3112500Y712500D02*
G02*
X3062500Y762500I-2268J47732D01*
G75*
G01*
X3462500Y712500D02*
G03*
X3512500Y762500I2268J47732D01*
G75*
G01*
X3512500Y1112500D02*
G03*
X3462500Y1162500I-47732J2268D01*
G75*
G01*
X3517036Y520464D02*
G03*
X3467036Y570464I-47732J2268D01*
G75*
G01*
X3467036Y120464D02*
G03*
X3517036Y170464I2268J47732D01*
G75*
G01*
X3117036Y120464D02*
G02*
X3067036Y170464I-2268J47732D01*
G75*
G01*
X3067036Y520464D02*
G02*
X3117036Y570464I47732J2268D01*
G75*
G01*
X2929536Y520464D02*
G03*
X2879536Y570464I-47732J2268D01*
G75*
G01*
X2879536Y120464D02*
G03*
X2929536Y170464I2268J47732D01*
G75*
G01*
X2529536Y120464D02*
G02*
X2479536Y170464I-2268J47732D01*
G75*
G01*
X2479536Y520464D02*
G02*
X2529536Y570464I47732J2268D01*
G75*
G01*
X1892038Y520464D02*
G02*
X1942038Y570464I47732J2268D01*
G75*
G01*
X1942038Y120464D02*
G02*
X1892038Y170464I-2268J47732D01*
G75*
G01*
X2292038Y120464D02*
G03*
X2342038Y170464I2268J47732D01*
G75*
G01*
X2342038Y520464D02*
G03*
X2292038Y570464I-47732J2268D01*
G75*
G01*
X2337502Y1700000D02*
G03*
X2287502Y1750000I-47732J2268D01*
G75*
G01*
X2287502Y1300000D02*
G03*
X2337502Y1350000I2268J47732D01*
G75*
G01*
X1937502Y1300000D02*
G02*
X1887502Y1350000I-2268J47732D01*
G75*
G01*
X1887502Y1700000D02*
G02*
X1937502Y1750000I47732J2268D01*
G75*
G01*
X2475000Y1700000D02*
G02*
X2525000Y1750000I47732J2268D01*
G75*
G01*
X2525000Y1300000D02*
G02*
X2475000Y1350000I-2268J47732D01*
G75*
G01*
X2875000Y1300000D02*
G03*
X2925000Y1350000I2268J47732D01*
G75*
G01*
X2925000Y1700000D02*
G03*
X2875000Y1750000I-47732J2268D01*
G75*
G01*
X3062500Y1700000D02*
G02*
X3112500Y1750000I47732J2268D01*
G75*
G01*
X3112500Y1300000D02*
G02*
X3062500Y1350000I-2268J47732D01*
G75*
G01*
X3462500Y1300000D02*
G03*
X3512500Y1350000I2268J47732D01*
G75*
G01*
X3512500Y1700000D02*
G03*
X3462500Y1750000I-47732J2268D01*
G75*
G01*
X3512500Y2287500D02*
G03*
X3462500Y2337500I-47732J2268D01*
G75*
G01*
X3462500Y1887500D02*
G03*
X3512500Y1937500I2268J47732D01*
G75*
G01*
X3112500Y1887500D02*
G02*
X3062500Y1937500I-2268J47732D01*
G75*
G01*
X3062500Y2287500D02*
G02*
X3112500Y2337500I47732J2268D01*
G75*
G01*
X2925000Y2287500D02*
G03*
X2875000Y2337500I-47732J2268D01*
G75*
G01*
X2875000Y1887500D02*
G03*
X2925000Y1937500I2268J47732D01*
G75*
G01*
X2525000Y1887500D02*
G02*
X2475000Y1937500I-2268J47732D01*
G75*
G01*
X2475000Y2287500D02*
G02*
X2525000Y2337500I47732J2268D01*
G75*
G01*
X1887502Y2287500D02*
G02*
X1937502Y2337500I47732J2268D01*
G75*
G01*
X1937502Y1887500D02*
G02*
X1887502Y1937500I-2268J47732D01*
G75*
G01*
X2287502Y1887500D02*
G03*
X2337502Y1937500I2268J47732D01*
G75*
G01*
X2337502Y2287500D02*
G03*
X2287502Y2337500I-47732J2268D01*
G75*
G01*
X5862500Y2287500D02*
G03*
X5812500Y2337500I-47732J2268D01*
G75*
G01*
X5812500Y1887500D02*
G03*
X5862500Y1937500I2268J47732D01*
G75*
G01*
X5462500Y1887500D02*
G02*
X5412500Y1937500I-2268J47732D01*
G75*
G01*
X5412500Y2287500D02*
G02*
X5462500Y2337500I47732J2268D01*
G75*
G01*
X6000002Y2287500D02*
G02*
X6050002Y2337500I47732J2268D01*
G75*
G01*
X6050002Y1887500D02*
G02*
X6000002Y1937500I-2268J47732D01*
G75*
G01*
X6400002Y1887500D02*
G03*
X6450002Y1937500I2268J47732D01*
G75*
G01*
X6450002Y2287500D02*
G03*
X6400002Y2337500I-47732J2268D01*
G75*
G01*
X6587502Y2287500D02*
G02*
X6637502Y2337500I47732J2268D01*
G75*
G01*
X6637502Y1887500D02*
G02*
X6587502Y1937500I-2268J47732D01*
G75*
G01*
X6987502Y1887500D02*
G03*
X7037502Y1937500I2268J47732D01*
G75*
G01*
X7037502Y2287500D02*
G03*
X6987502Y2337500I-47732J2268D01*
G75*
G01*
X7037502Y1700000D02*
G03*
X6987502Y1750000I-47732J2268D01*
G75*
G01*
X6987502Y1300000D02*
G03*
X7037502Y1350000I2268J47732D01*
G75*
G01*
X6637502Y1300000D02*
G02*
X6587502Y1350000I-2268J47732D01*
G75*
G01*
X6587502Y1700000D02*
G02*
X6637502Y1750000I47732J2268D01*
G75*
G01*
X6450002Y1700000D02*
G03*
X6400002Y1750000I-47732J2268D01*
G75*
G01*
X6400002Y1300000D02*
G03*
X6450002Y1350000I2268J47732D01*
G75*
G01*
X6050002Y1300000D02*
G02*
X6000002Y1350000I-2268J47732D01*
G75*
G01*
X6000002Y1700000D02*
G02*
X6050002Y1750000I47732J2268D01*
G75*
G01*
X5412500Y1700000D02*
G02*
X5462500Y1750000I47732J2268D01*
G75*
G01*
X5462500Y1300000D02*
G02*
X5412500Y1350000I-2268J47732D01*
G75*
G01*
X5812500Y1300000D02*
G03*
X5862500Y1350000I2268J47732D01*
G75*
G01*
X5862500Y1700000D02*
G03*
X5812500Y1750000I-47732J2268D01*
G75*
G01*
X5867036Y520464D02*
G03*
X5817036Y570464I-47732J2268D01*
G75*
G01*
X5817036Y120464D02*
G03*
X5867036Y170464I2268J47732D01*
G75*
G01*
X5467036Y120464D02*
G02*
X5417036Y170464I-2268J47732D01*
G75*
G01*
X5417036Y520464D02*
G02*
X5467036Y570464I47732J2268D01*
G75*
G01*
X6004538Y520464D02*
G02*
X6054538Y570464I47732J2268D01*
G75*
G01*
X6054538Y120464D02*
G02*
X6004538Y170464I-2268J47732D01*
G75*
G01*
X6404538Y120464D02*
G03*
X6454538Y170464I2268J47732D01*
G75*
G01*
X6454538Y520464D02*
G03*
X6404538Y570464I-47732J2268D01*
G75*
G01*
X6592038Y520464D02*
G02*
X6642038Y570464I47732J2268D01*
G75*
G01*
X6642038Y120464D02*
G02*
X6592038Y170464I-2268J47732D01*
G75*
G01*
X6992038Y120464D02*
G03*
X7042038Y170464I2268J47732D01*
G75*
G01*
X7042038Y520464D02*
G03*
X6992038Y570464I-47732J2268D01*
G75*
G01*
X7037502Y1112500D02*
G03*
X6987502Y1162500I-47732J2268D01*
G75*
G01*
X6987502Y712500D02*
G03*
X7037502Y762500I2268J47732D01*
G75*
G01*
X6637502Y712500D02*
G02*
X6587502Y762500I-2268J47732D01*
G75*
G01*
X6587502Y1112500D02*
G02*
X6637502Y1162500I47732J2268D01*
G75*
G01*
X6450002Y1112500D02*
G03*
X6400002Y1162500I-47732J2268D01*
G75*
G01*
X6400002Y712500D02*
G03*
X6450002Y762500I2268J47732D01*
G75*
G01*
X6050002Y712500D02*
G02*
X6000002Y762500I-2268J47732D01*
G75*
G01*
X6000002Y1112500D02*
G02*
X6050002Y1162500I47732J2268D01*
G75*
G01*
X5412500Y1112500D02*
G02*
X5462500Y1162500I47732J2268D01*
G75*
G01*
X5462500Y712500D02*
G02*
X5412500Y762500I-2268J47732D01*
G75*
G01*
X5812500Y712500D02*
G03*
X5862500Y762500I2268J47732D01*
G75*
G01*
X5862500Y1112500D02*
G03*
X5812500Y1162500I-47732J2268D01*
G75*
G01*
X4100002Y1112500D02*
G03*
X4050002Y1162500I-47732J2268D01*
G75*
G01*
X4050002Y712500D02*
G03*
X4100002Y762500I2268J47732D01*
G75*
G01*
X3700002Y712500D02*
G02*
X3650002Y762500I-2268J47732D01*
G75*
G01*
X3650002Y1112500D02*
G02*
X3700002Y1162500I47732J2268D01*
G75*
G01*
X4237500Y1112500D02*
G02*
X4287500Y1162500I47732J2268D01*
G75*
G01*
X4287500Y712500D02*
G02*
X4237500Y762500I-2268J47732D01*
G75*
G01*
X4637500Y712500D02*
G03*
X4687500Y762500I2268J47732D01*
G75*
G01*
X4687500Y1112500D02*
G03*
X4637500Y1162500I-47732J2268D01*
G75*
G01*
X4825000Y1112500D02*
G02*
X4875000Y1162500I47732J2268D01*
G75*
G01*
X4875000Y712500D02*
G02*
X4825000Y762500I-2268J47732D01*
G75*
G01*
X5225000Y712500D02*
G03*
X5275000Y762500I2268J47732D01*
G75*
G01*
X5275000Y1112500D02*
G03*
X5225000Y1162500I-47732J2268D01*
G75*
G01*
X5279536Y520464D02*
G03*
X5229536Y570464I-47732J2268D01*
G75*
G01*
X5229536Y120464D02*
G03*
X5279536Y170464I2268J47732D01*
G75*
G01*
X4879536Y120464D02*
G02*
X4829536Y170464I-2268J47732D01*
G75*
G01*
X4829536Y520464D02*
G02*
X4879536Y570464I47732J2268D01*
G75*
G01*
X4692036Y520464D02*
G03*
X4642036Y570464I-47732J2268D01*
G75*
G01*
X4642036Y120464D02*
G03*
X4692036Y170464I2268J47732D01*
G75*
G01*
X4292036Y120464D02*
G02*
X4242036Y170464I-2268J47732D01*
G75*
G01*
X4242036Y520464D02*
G02*
X4292036Y570464I47732J2268D01*
G75*
G01*
X3654538Y520464D02*
G02*
X3704538Y570464I47732J2268D01*
G75*
G01*
X3704538Y120464D02*
G02*
X3654538Y170464I-2268J47732D01*
G75*
G01*
X4054538Y120464D02*
G03*
X4104538Y170464I2268J47732D01*
G75*
G01*
X4104538Y520464D02*
G03*
X4054538Y570464I-47732J2268D01*
G75*
G01*
X4100002Y1700000D02*
G03*
X4050002Y1750000I-47732J2268D01*
G75*
G01*
X4050002Y1300000D02*
G03*
X4100002Y1350000I2268J47732D01*
G75*
G01*
X3700002Y1300000D02*
G02*
X3650002Y1350000I-2268J47732D01*
G75*
G01*
X3650002Y1700000D02*
G02*
X3700002Y1750000I47732J2268D01*
G75*
G01*
X4237500Y1700000D02*
G02*
X4287500Y1750000I47732J2268D01*
G75*
G01*
X4287500Y1300000D02*
G02*
X4237500Y1350000I-2268J47732D01*
G75*
G01*
X4637500Y1300000D02*
G03*
X4687500Y1350000I2268J47732D01*
G75*
G01*
X4687500Y1700000D02*
G03*
X4637500Y1750000I-47732J2268D01*
G75*
G01*
X4825000Y1700000D02*
G02*
X4875000Y1750000I47732J2268D01*
G75*
G01*
X4875000Y1300000D02*
G02*
X4825000Y1350000I-2268J47732D01*
G75*
G01*
X5225000Y1300000D02*
G03*
X5275000Y1350000I2268J47732D01*
G75*
G01*
X5275000Y1700000D02*
G03*
X5225000Y1750000I-47732J2268D01*
G75*
G01*
X5275000Y2287500D02*
G03*
X5225000Y2337500I-47732J2268D01*
G75*
G01*
X5225000Y1887500D02*
G03*
X5275000Y1937500I2268J47732D01*
G75*
G01*
X4875000Y1887500D02*
G02*
X4825000Y1937500I-2268J47732D01*
G75*
G01*
X4825000Y2287500D02*
G02*
X4875000Y2337500I47732J2268D01*
G75*
G01*
X4687500Y2287500D02*
G03*
X4637500Y2337500I-47732J2268D01*
G75*
G01*
X4637500Y1887500D02*
G03*
X4687500Y1937500I2268J47732D01*
G75*
G01*
X4287500Y1887500D02*
G02*
X4237500Y1937500I-2268J47732D01*
G75*
G01*
X4237500Y2287500D02*
G02*
X4287500Y2337500I47732J2268D01*
G75*
G01*
X3650002Y2287500D02*
G02*
X3700002Y2337500I47732J2268D01*
G75*
G01*
X3700002Y1887500D02*
G02*
X3650002Y1937500I-2268J47732D01*
G75*
G01*
X4050002Y1887500D02*
G03*
X4100002Y1937500I2268J47732D01*
G75*
G01*
X4100002Y2287500D02*
G03*
X4050002Y2337500I-47732J2268D01*
D11*
X0Y0D02*
G01*
X0Y2450000D01*
X7150000Y2450000D01*
X7150000Y0D01*
X0Y0D01*

%LPD*%
M02*
