G04 Layer: BoardOutlineLayer*
G04 EasyEDA v6.5.39, 2024-01-09 13:29:43*
G04 da27f5285f7442a0b5df67976535a677,24315905b9734375b2ccc5c6aeea7757,10*
G04 Gerber Generator version 0.2*
G04 Scale: 100 percent, Rotated: No, Reflected: No *
G04 Dimensions in inches *
G04 leading zeros omitted , absolute positions ,3 integer and 6 decimal *
%FSLAX36Y36*%
%MOIN*%

%ADD10C,0.0050*%
%ADD11C,0.0020*%
D10*
X6633010Y158413D02*
G01*
X6633010Y512741D01*
X7026706Y119041D02*
G01*
X6672380Y119041D01*
X7066076Y512741D02*
G01*
X7066076Y158413D01*
X6672380Y552109D02*
G01*
X7026706Y552109D01*
X6042462Y158413D02*
G01*
X6042462Y512741D01*
X6436154Y119041D02*
G01*
X6081828Y119041D01*
X6475524Y512741D02*
G01*
X6475524Y158413D01*
X6081828Y552109D02*
G01*
X6436154Y552109D01*
X5451907Y158413D02*
G01*
X5451907Y512741D01*
X5845608Y119041D02*
G01*
X5491277Y119041D01*
X5884983Y512741D02*
G01*
X5884983Y158413D01*
X5491277Y552109D02*
G01*
X5845608Y552109D01*
X4860919Y158825D02*
G01*
X4860919Y513153D01*
X5254611Y119454D02*
G01*
X4900285Y119454D01*
X5293986Y513153D02*
G01*
X5293986Y158825D01*
X4900285Y552523D02*
G01*
X5254611Y552523D01*
X4270807Y158413D02*
G01*
X4270807Y512741D01*
X4664508Y119041D02*
G01*
X4310177Y119041D01*
X4703878Y512741D02*
G01*
X4703878Y158413D01*
X4310177Y552109D02*
G01*
X4664508Y552109D01*
X3680261Y158413D02*
G01*
X3680261Y512741D01*
X4073953Y119041D02*
G01*
X3719630Y119041D01*
X4113323Y512741D02*
G01*
X4113323Y158413D01*
X3719630Y552109D02*
G01*
X4073953Y552109D01*
X3089704Y158413D02*
G01*
X3089704Y512741D01*
X3483406Y119041D02*
G01*
X3129075Y119041D01*
X3522776Y512741D02*
G01*
X3522776Y158413D01*
X3129075Y552109D02*
G01*
X3483406Y552109D01*
X2498717Y158825D02*
G01*
X2498717Y513153D01*
X2892413Y119454D02*
G01*
X2538087Y119454D01*
X2931785Y513153D02*
G01*
X2931785Y158825D01*
X2538087Y552523D02*
G01*
X2892413Y552523D01*
X1908162Y158825D02*
G01*
X1908162Y513153D01*
X2301863Y119454D02*
G01*
X1947532Y119454D01*
X2341233Y513153D02*
G01*
X2341233Y158825D01*
X1947532Y552523D02*
G01*
X2301863Y552523D01*
X1317614Y158825D02*
G01*
X1317614Y513153D01*
X1711315Y119454D02*
G01*
X1356985Y119454D01*
X1750685Y513153D02*
G01*
X1750685Y158825D01*
X1356985Y552523D02*
G01*
X1711315Y552523D01*
X727062Y158825D02*
G01*
X727062Y513153D01*
X1120769Y119454D02*
G01*
X766432Y119454D01*
X1160138Y513153D02*
G01*
X1160138Y158825D01*
X766432Y552523D02*
G01*
X1120769Y552523D01*
X136071Y159238D02*
G01*
X136071Y513564D01*
X529769Y119868D02*
G01*
X175441Y119868D01*
X569140Y513564D02*
G01*
X569140Y159238D01*
X175441Y552937D02*
G01*
X529769Y552937D01*
X6633010Y748962D02*
G01*
X6633010Y1103290D01*
X7026706Y709591D02*
G01*
X6672380Y709591D01*
X7066076Y1103290D02*
G01*
X7066076Y748962D01*
X6672380Y1142660D02*
G01*
X7026706Y1142660D01*
X6042462Y748962D02*
G01*
X6042462Y1103290D01*
X6436154Y709591D02*
G01*
X6081828Y709591D01*
X6475524Y1103290D02*
G01*
X6475524Y748962D01*
X6081828Y1142660D02*
G01*
X6436154Y1142660D01*
X5451907Y748962D02*
G01*
X5451907Y1103290D01*
X5845608Y709591D02*
G01*
X5491277Y709591D01*
X5884983Y1103290D02*
G01*
X5884983Y748962D01*
X5491277Y1142660D02*
G01*
X5845608Y1142660D01*
X4860919Y749375D02*
G01*
X4860919Y1103703D01*
X5254611Y710001D02*
G01*
X4900285Y710001D01*
X5293986Y1103703D02*
G01*
X5293986Y749375D01*
X4900285Y1143071D02*
G01*
X5254611Y1143071D01*
X4270807Y748962D02*
G01*
X4270807Y1103290D01*
X4664508Y709591D02*
G01*
X4310177Y709591D01*
X4703878Y1103290D02*
G01*
X4703878Y748962D01*
X4310177Y1142660D02*
G01*
X4664508Y1142660D01*
X3680261Y748962D02*
G01*
X3680261Y1103290D01*
X4073953Y709591D02*
G01*
X3719630Y709591D01*
X4113323Y1103290D02*
G01*
X4113323Y748962D01*
X3719630Y1142660D02*
G01*
X4073953Y1142660D01*
X3089704Y748962D02*
G01*
X3089704Y1103290D01*
X3483406Y709591D02*
G01*
X3129075Y709591D01*
X3522776Y1103290D02*
G01*
X3522776Y748962D01*
X3129075Y1142660D02*
G01*
X3483406Y1142660D01*
X2498717Y749375D02*
G01*
X2498717Y1103703D01*
X2892413Y710001D02*
G01*
X2538087Y710001D01*
X2931785Y1103703D02*
G01*
X2931785Y749375D01*
X2538087Y1143071D02*
G01*
X2892413Y1143071D01*
X1908162Y749375D02*
G01*
X1908162Y1103703D01*
X2301863Y710001D02*
G01*
X1947532Y710001D01*
X2341233Y1103703D02*
G01*
X2341233Y749375D01*
X1947532Y1143071D02*
G01*
X2301863Y1143071D01*
X1317614Y749375D02*
G01*
X1317614Y1103703D01*
X1711315Y710001D02*
G01*
X1356985Y710001D01*
X1750685Y1103703D02*
G01*
X1750685Y749375D01*
X1356985Y1143071D02*
G01*
X1711315Y1143071D01*
X727062Y749375D02*
G01*
X727062Y1103703D01*
X1120769Y710001D02*
G01*
X766432Y710001D01*
X1160138Y1103703D02*
G01*
X1160138Y749375D01*
X766432Y1143071D02*
G01*
X1120769Y1143071D01*
X136071Y749787D02*
G01*
X136071Y1104115D01*
X529769Y710417D02*
G01*
X175441Y710417D01*
X569140Y1104115D02*
G01*
X569140Y749787D01*
X175441Y1143485D02*
G01*
X529769Y1143485D01*
X6633010Y1339513D02*
G01*
X6633010Y1693840D01*
X7026706Y1300144D02*
G01*
X6672380Y1300144D01*
X7066076Y1693840D02*
G01*
X7066076Y1339513D01*
X6672380Y1733209D02*
G01*
X7026706Y1733209D01*
X6042462Y1339513D02*
G01*
X6042462Y1693840D01*
X6436154Y1300144D02*
G01*
X6081828Y1300144D01*
X6475524Y1693840D02*
G01*
X6475524Y1339513D01*
X6081828Y1733209D02*
G01*
X6436154Y1733209D01*
X5451907Y1339513D02*
G01*
X5451907Y1693840D01*
X5845608Y1300144D02*
G01*
X5491277Y1300144D01*
X5884983Y1693840D02*
G01*
X5884983Y1339513D01*
X5491277Y1733209D02*
G01*
X5845608Y1733209D01*
X4860919Y1339924D02*
G01*
X4860919Y1694254D01*
X5254611Y1300554D02*
G01*
X4900285Y1300554D01*
X5293986Y1694254D02*
G01*
X5293986Y1339924D01*
X4900285Y1733625D02*
G01*
X5254611Y1733625D01*
X4270807Y1339513D02*
G01*
X4270807Y1693840D01*
X4664508Y1300144D02*
G01*
X4310177Y1300144D01*
X4703878Y1693840D02*
G01*
X4703878Y1339513D01*
X4310177Y1733209D02*
G01*
X4664508Y1733209D01*
X3680261Y1339513D02*
G01*
X3680261Y1693840D01*
X4073953Y1300144D02*
G01*
X3719630Y1300144D01*
X4113323Y1693840D02*
G01*
X4113323Y1339513D01*
X3719630Y1733209D02*
G01*
X4073953Y1733209D01*
X3089704Y1339513D02*
G01*
X3089704Y1693840D01*
X3483406Y1300144D02*
G01*
X3129075Y1300144D01*
X3522776Y1693840D02*
G01*
X3522776Y1339513D01*
X3129075Y1733209D02*
G01*
X3483406Y1733209D01*
X2498717Y1339924D02*
G01*
X2498717Y1694254D01*
X2892413Y1300554D02*
G01*
X2538087Y1300554D01*
X2931785Y1694254D02*
G01*
X2931785Y1339924D01*
X2538087Y1733625D02*
G01*
X2892413Y1733625D01*
X1908162Y1339924D02*
G01*
X1908162Y1694254D01*
X2301863Y1300554D02*
G01*
X1947532Y1300554D01*
X2341233Y1694254D02*
G01*
X2341233Y1339924D01*
X1947532Y1733625D02*
G01*
X2301863Y1733625D01*
X1317614Y1339924D02*
G01*
X1317614Y1694254D01*
X1711315Y1300554D02*
G01*
X1356985Y1300554D01*
X1750685Y1694254D02*
G01*
X1750685Y1339924D01*
X1356985Y1733625D02*
G01*
X1711315Y1733625D01*
X727062Y1339924D02*
G01*
X727062Y1694254D01*
X1120769Y1300554D02*
G01*
X766432Y1300554D01*
X1160138Y1694254D02*
G01*
X1160138Y1339924D01*
X766432Y1733625D02*
G01*
X1120769Y1733625D01*
X136071Y1340338D02*
G01*
X136071Y1694665D01*
X529769Y1300969D02*
G01*
X175441Y1300969D01*
X569140Y1694665D02*
G01*
X569140Y1340338D01*
X175441Y1734038D02*
G01*
X529769Y1734038D01*
X6632565Y1930475D02*
G01*
X6632565Y2284803D01*
X7026266Y1891104D02*
G01*
X6671935Y1891104D01*
X7065636Y2284803D02*
G01*
X7065636Y1930475D01*
X6671935Y2324171D02*
G01*
X7026266Y2324171D01*
X6042019Y1930475D02*
G01*
X6042019Y2284803D01*
X6435715Y1891104D02*
G01*
X6081388Y1891104D01*
X6475084Y2284803D02*
G01*
X6475084Y1930475D01*
X6081388Y2324171D02*
G01*
X6435715Y2324171D01*
X5451467Y1930475D02*
G01*
X5451467Y2284803D01*
X5845168Y1891104D02*
G01*
X5490837Y1891104D01*
X5884538Y2284803D02*
G01*
X5884538Y1930475D01*
X5490837Y2324171D02*
G01*
X5845168Y2324171D01*
X4860475Y1930888D02*
G01*
X4860475Y2285216D01*
X5254171Y1891518D02*
G01*
X4899845Y1891518D01*
X5293541Y2285216D02*
G01*
X5293541Y1930888D01*
X4899845Y2324587D02*
G01*
X5254171Y2324587D01*
X4270364Y1930475D02*
G01*
X4270364Y2284803D01*
X4664065Y1891104D02*
G01*
X4309733Y1891104D01*
X4703434Y2284803D02*
G01*
X4703434Y1930475D01*
X4309733Y2324171D02*
G01*
X4664065Y2324171D01*
X3679817Y1930475D02*
G01*
X3679817Y2284803D01*
X4073513Y1891104D02*
G01*
X3719187Y1891104D01*
X4112883Y2284803D02*
G01*
X4112883Y1930475D01*
X3719187Y2324171D02*
G01*
X4073513Y2324171D01*
X3089264Y1930475D02*
G01*
X3089264Y2284803D01*
X3482965Y1891104D02*
G01*
X3128635Y1891104D01*
X3522335Y2284803D02*
G01*
X3522335Y1930475D01*
X3128635Y2324171D02*
G01*
X3482965Y2324171D01*
X2498274Y1930888D02*
G01*
X2498274Y2285216D01*
X2891975Y1891518D02*
G01*
X2537644Y1891518D01*
X2931345Y2285216D02*
G01*
X2931345Y1930888D01*
X2537644Y2324587D02*
G01*
X2891975Y2324587D01*
X1907722Y1930888D02*
G01*
X1907722Y2285216D01*
X2301423Y1891518D02*
G01*
X1947092Y1891518D01*
X2340793Y2285216D02*
G01*
X2340793Y1930888D01*
X1947092Y2324587D02*
G01*
X2301423Y2324587D01*
X1317174Y1930888D02*
G01*
X1317174Y2285216D01*
X1710870Y1891518D02*
G01*
X1356544Y1891518D01*
X1750241Y2285216D02*
G01*
X1750241Y1930888D01*
X1356544Y2324587D02*
G01*
X1710870Y2324587D01*
X726621Y1930888D02*
G01*
X726621Y2285216D01*
X1120325Y1891518D02*
G01*
X765991Y1891518D01*
X1159695Y2285216D02*
G01*
X1159695Y1930888D01*
X765991Y2324587D02*
G01*
X1120325Y2324587D01*
X135630Y1931300D02*
G01*
X135630Y2285626D01*
X529328Y1891930D02*
G01*
X175000Y1891930D01*
X568699Y2285626D02*
G01*
X568699Y1931300D01*
X175000Y2325000D02*
G01*
X529328Y2325000D01*
X4900000Y5300000D02*
G01*
X6800000Y5300000D01*
X6800000Y2600000D01*
X4900000Y2600000D01*
X4900000Y5300000D01*
D11*
X0Y0D02*
G01*
X0Y2895700D01*
X0Y5500000D01*
X7200000Y5500000D01*
X7200000Y0D01*
X0Y0D01*
D10*
G75*
G01
X1367710Y5000000D02*
G03X1367710Y5000000I-167710J0D01*
G75*
G01
X2392710Y5000000D02*
G03X2392710Y5000000I-167710J0D01*
G75*
G01
X3417710Y5000000D02*
G03X3417710Y5000000I-167710J0D01*
G75*
G01
X4442710Y5000000D02*
G03X4442710Y5000000I-167710J0D01*
G75*
G01
X4442710Y4000000D02*
G03X4442710Y4000000I-167710J0D01*
G75*
G01
X3417710Y4000000D02*
G03X3417710Y4000000I-167710J0D01*
G75*
G01
X2392710Y4000000D02*
G03X2392710Y4000000I-167710J0D01*
G75*
G01
X1367710Y4000000D02*
G03X1367710Y4000000I-167710J0D01*
G75*
G01
X2392710Y3000000D02*
G03X2392710Y3000000I-167710J0D01*
G75*
G01
X1360080Y3000000D02*
G03X1360080Y3000000I-160080J0D01*
G75*
G01
X3417710Y3000000D02*
G03X3417710Y3000000I-167710J0D01*
G75*
G01
X4442710Y3000000D02*
G03X4442710Y3000000I-167710J0D01*
G75*
G01
X3830900Y5050000D02*
G03X3830900Y5050000I-55900J0D01*
G75*
G01
X1780900Y5050000D02*
G03X1780900Y5050000I-55900J0D01*
G75*
G01
X1780900Y2600000D02*
G03X1780900Y2600000I-55900J0D01*
G75*
G01
X3830900Y2600000D02*
G03X3830900Y2600000I-55900J0D01*
G75*
G01*
X136072Y513566D02*
G02*
X175462Y552906I38928J413D01*
G75*
G01*
X529772Y552936D02*
G02*
X569162Y513606I35J-39355D01*
G75*
G01*
X569142Y159236D02*
G02*
X529762Y119906I-39451J121D01*
G75*
G01*
X136072Y159236D02*
G03*
X175462Y119906I40277J948D01*
G75*
G01*
X727064Y158823D02*
G03*
X766454Y119493I40277J948D01*
G75*
G01*
X1160134Y158823D02*
G02*
X1120754Y119493I-39451J121D01*
G75*
G01*
X1120764Y552523D02*
G02*
X1160154Y513193I35J-39355D01*
G75*
G01*
X727064Y513153D02*
G02*
X766454Y552493I38928J413D01*
G75*
G01*
X1317614Y158823D02*
G03*
X1357004Y119493I40277J948D01*
G75*
G01*
X1750684Y158823D02*
G02*
X1711304Y119493I-39451J121D01*
G75*
G01*
X1711314Y552523D02*
G02*
X1750704Y513193I35J-39355D01*
G75*
G01*
X1317614Y513153D02*
G02*
X1357004Y552493I38928J413D01*
G75*
G01*
X1908164Y158823D02*
G03*
X1947554Y119493I40277J948D01*
G75*
G01*
X2341234Y158823D02*
G02*
X2301854Y119493I-39451J121D01*
G75*
G01*
X2301864Y552523D02*
G02*
X2341254Y513193I35J-39355D01*
G75*
G01*
X1908164Y513153D02*
G02*
X1947554Y552493I38928J413D01*
G75*
G01*
X4270806Y512740D02*
G02*
X4310196Y552080I38928J413D01*
G75*
G01*
X4664506Y552110D02*
G02*
X4703896Y512780I35J-39355D01*
G75*
G01*
X4703876Y158410D02*
G02*
X4664496Y119080I-39451J121D01*
G75*
G01*
X4270806Y158410D02*
G03*
X4310196Y119080I40277J948D01*
G75*
G01*
X3680256Y512740D02*
G02*
X3719646Y552080I38928J413D01*
G75*
G01*
X4073956Y552110D02*
G02*
X4113346Y512780I35J-39355D01*
G75*
G01*
X4113326Y158410D02*
G02*
X4073946Y119080I-39451J121D01*
G75*
G01*
X3680256Y158410D02*
G03*
X3719646Y119080I40277J948D01*
G75*
G01*
X3089706Y512740D02*
G02*
X3129096Y552080I38928J413D01*
G75*
G01*
X3483406Y552110D02*
G02*
X3522796Y512780I35J-39355D01*
G75*
G01*
X3522776Y158410D02*
G02*
X3483396Y119080I-39451J121D01*
G75*
G01*
X3089706Y158410D02*
G03*
X3129096Y119080I40277J948D01*
G75*
G01*
X2498714Y158823D02*
G03*
X2538104Y119493I40277J948D01*
G75*
G01*
X2931784Y158823D02*
G02*
X2892404Y119493I-39451J121D01*
G75*
G01*
X2892414Y552523D02*
G02*
X2931804Y513193I35J-39355D01*
G75*
G01*
X2498714Y513153D02*
G02*
X2538104Y552493I38928J413D01*
G75*
G01*
X6633006Y512740D02*
G02*
X6672396Y552080I38928J413D01*
G75*
G01*
X7026706Y552110D02*
G02*
X7066096Y512780I35J-39355D01*
G75*
G01*
X7066076Y158410D02*
G02*
X7026696Y119080I-39451J121D01*
G75*
G01*
X6633006Y158410D02*
G03*
X6672396Y119080I40277J948D01*
G75*
G01*
X6042456Y512740D02*
G02*
X6081846Y552080I38928J413D01*
G75*
G01*
X6436156Y552110D02*
G02*
X6475546Y512780I35J-39355D01*
G75*
G01*
X6475526Y158410D02*
G02*
X6436146Y119080I-39451J121D01*
G75*
G01*
X6042456Y158410D02*
G03*
X6081846Y119080I40277J948D01*
G75*
G01*
X5451906Y512740D02*
G02*
X5491296Y552080I38928J413D01*
G75*
G01*
X5845606Y552110D02*
G02*
X5884996Y512780I35J-39355D01*
G75*
G01*
X5884976Y158410D02*
G02*
X5845596Y119080I-39451J121D01*
G75*
G01*
X5451906Y158410D02*
G03*
X5491296Y119080I40277J948D01*
G75*
G01*
X4860914Y158823D02*
G03*
X4900304Y119493I40277J948D01*
G75*
G01*
X5293984Y158823D02*
G02*
X5254604Y119493I-39451J121D01*
G75*
G01*
X5254614Y552523D02*
G02*
X5294004Y513193I35J-39355D01*
G75*
G01*
X4860914Y513153D02*
G02*
X4900304Y552493I38928J413D01*
G75*
G01*
X136072Y1104116D02*
G02*
X175462Y1143456I38928J413D01*
G75*
G01*
X529772Y1143486D02*
G02*
X569162Y1104156I35J-39355D01*
G75*
G01*
X569142Y749786D02*
G02*
X529762Y710456I-39451J121D01*
G75*
G01*
X136072Y749786D02*
G03*
X175462Y710456I40277J948D01*
G75*
G01*
X727064Y749373D02*
G03*
X766454Y710043I40277J948D01*
G75*
G01*
X1160134Y749373D02*
G02*
X1120754Y710043I-39451J121D01*
G75*
G01*
X1120764Y1143073D02*
G02*
X1160154Y1103743I35J-39355D01*
G75*
G01*
X727064Y1103703D02*
G02*
X766454Y1143043I38928J413D01*
G75*
G01*
X1317614Y749373D02*
G03*
X1357004Y710043I40277J948D01*
G75*
G01*
X1750684Y749373D02*
G02*
X1711304Y710043I-39451J121D01*
G75*
G01*
X1711314Y1143073D02*
G02*
X1750704Y1103743I35J-39355D01*
G75*
G01*
X1317614Y1103703D02*
G02*
X1357004Y1143043I38928J413D01*
G75*
G01*
X1908164Y749373D02*
G03*
X1947554Y710043I40277J948D01*
G75*
G01*
X2341234Y749373D02*
G02*
X2301854Y710043I-39451J121D01*
G75*
G01*
X2301864Y1143073D02*
G02*
X2341254Y1103743I35J-39355D01*
G75*
G01*
X1908164Y1103703D02*
G02*
X1947554Y1143043I38928J413D01*
G75*
G01*
X4270806Y1103290D02*
G02*
X4310196Y1142630I38928J413D01*
G75*
G01*
X4664506Y1142660D02*
G02*
X4703896Y1103330I35J-39355D01*
G75*
G01*
X4703876Y748960D02*
G02*
X4664496Y709630I-39451J121D01*
G75*
G01*
X4270806Y748960D02*
G03*
X4310196Y709630I40277J948D01*
G75*
G01*
X3680256Y1103290D02*
G02*
X3719646Y1142630I38928J413D01*
G75*
G01*
X4073956Y1142660D02*
G02*
X4113346Y1103330I35J-39355D01*
G75*
G01*
X4113326Y748960D02*
G02*
X4073946Y709630I-39451J121D01*
G75*
G01*
X3680256Y748960D02*
G03*
X3719646Y709630I40277J948D01*
G75*
G01*
X3089706Y1103290D02*
G02*
X3129096Y1142630I38928J413D01*
G75*
G01*
X3483406Y1142660D02*
G02*
X3522796Y1103330I35J-39355D01*
G75*
G01*
X3522776Y748960D02*
G02*
X3483396Y709630I-39451J121D01*
G75*
G01*
X3089706Y748960D02*
G03*
X3129096Y709630I40277J948D01*
G75*
G01*
X2498714Y749373D02*
G03*
X2538104Y710043I40277J948D01*
G75*
G01*
X2931784Y749373D02*
G02*
X2892404Y710043I-39451J121D01*
G75*
G01*
X2892414Y1143073D02*
G02*
X2931804Y1103743I35J-39355D01*
G75*
G01*
X2498714Y1103703D02*
G02*
X2538104Y1143043I38928J413D01*
G75*
G01*
X6633006Y1103290D02*
G02*
X6672396Y1142630I38928J413D01*
G75*
G01*
X7026706Y1142660D02*
G02*
X7066096Y1103330I35J-39355D01*
G75*
G01*
X7066076Y748960D02*
G02*
X7026696Y709630I-39451J121D01*
G75*
G01*
X6633006Y748960D02*
G03*
X6672396Y709630I40277J948D01*
G75*
G01*
X6042456Y1103290D02*
G02*
X6081846Y1142630I38928J413D01*
G75*
G01*
X6436156Y1142660D02*
G02*
X6475546Y1103330I35J-39355D01*
G75*
G01*
X6475526Y748960D02*
G02*
X6436146Y709630I-39451J121D01*
G75*
G01*
X6042456Y748960D02*
G03*
X6081846Y709630I40277J948D01*
G75*
G01*
X5451906Y1103290D02*
G02*
X5491296Y1142630I38928J413D01*
G75*
G01*
X5845606Y1142660D02*
G02*
X5884996Y1103330I35J-39355D01*
G75*
G01*
X5884976Y748960D02*
G02*
X5845596Y709630I-39451J121D01*
G75*
G01*
X5451906Y748960D02*
G03*
X5491296Y709630I40277J948D01*
G75*
G01*
X4860914Y749373D02*
G03*
X4900304Y710043I40277J948D01*
G75*
G01*
X5293984Y749373D02*
G02*
X5254604Y710043I-39451J121D01*
G75*
G01*
X5254614Y1143073D02*
G02*
X5294004Y1103743I35J-39355D01*
G75*
G01*
X4860914Y1103703D02*
G02*
X4900304Y1143043I38928J413D01*
G75*
G01*
X136072Y1694666D02*
G02*
X175462Y1734006I38928J413D01*
G75*
G01*
X529772Y1734036D02*
G02*
X569162Y1694706I35J-39355D01*
G75*
G01*
X569142Y1340336D02*
G02*
X529762Y1301006I-39451J121D01*
G75*
G01*
X136072Y1340336D02*
G03*
X175462Y1301006I40277J948D01*
G75*
G01*
X727064Y1339923D02*
G03*
X766454Y1300593I40277J948D01*
G75*
G01*
X1160134Y1339923D02*
G02*
X1120754Y1300593I-39451J121D01*
G75*
G01*
X1120764Y1733623D02*
G02*
X1160154Y1694293I35J-39355D01*
G75*
G01*
X727064Y1694253D02*
G02*
X766454Y1733593I38928J413D01*
G75*
G01*
X1317614Y1339923D02*
G03*
X1357004Y1300593I40277J948D01*
G75*
G01*
X1750684Y1339923D02*
G02*
X1711304Y1300593I-39451J121D01*
G75*
G01*
X1711314Y1733623D02*
G02*
X1750704Y1694293I35J-39355D01*
G75*
G01*
X1317614Y1694253D02*
G02*
X1357004Y1733593I38928J413D01*
G75*
G01*
X1908164Y1339923D02*
G03*
X1947554Y1300593I40277J948D01*
G75*
G01*
X2341234Y1339923D02*
G02*
X2301854Y1300593I-39451J121D01*
G75*
G01*
X2301864Y1733623D02*
G02*
X2341254Y1694293I35J-39355D01*
G75*
G01*
X1908164Y1694253D02*
G02*
X1947554Y1733593I38928J413D01*
G75*
G01*
X4270806Y1693840D02*
G02*
X4310196Y1733180I38928J413D01*
G75*
G01*
X4664506Y1733210D02*
G02*
X4703896Y1693880I35J-39355D01*
G75*
G01*
X4703876Y1339510D02*
G02*
X4664496Y1300180I-39451J121D01*
G75*
G01*
X4270806Y1339510D02*
G03*
X4310196Y1300180I40277J948D01*
G75*
G01*
X3680256Y1693840D02*
G02*
X3719646Y1733180I38928J413D01*
G75*
G01*
X4073956Y1733210D02*
G02*
X4113346Y1693880I35J-39355D01*
G75*
G01*
X4113326Y1339510D02*
G02*
X4073946Y1300180I-39451J121D01*
G75*
G01*
X3680256Y1339510D02*
G03*
X3719646Y1300180I40277J948D01*
G75*
G01*
X3089706Y1693840D02*
G02*
X3129096Y1733180I38928J413D01*
G75*
G01*
X3483406Y1733210D02*
G02*
X3522796Y1693880I35J-39355D01*
G75*
G01*
X3522776Y1339510D02*
G02*
X3483396Y1300180I-39451J121D01*
G75*
G01*
X3089706Y1339510D02*
G03*
X3129096Y1300180I40277J948D01*
G75*
G01*
X2498714Y1339923D02*
G03*
X2538104Y1300593I40277J948D01*
G75*
G01*
X2931784Y1339923D02*
G02*
X2892404Y1300593I-39451J121D01*
G75*
G01*
X2892414Y1733623D02*
G02*
X2931804Y1694293I35J-39355D01*
G75*
G01*
X2498714Y1694253D02*
G02*
X2538104Y1733593I38928J413D01*
G75*
G01*
X6633006Y1693840D02*
G02*
X6672396Y1733180I38928J413D01*
G75*
G01*
X7026706Y1733210D02*
G02*
X7066096Y1693880I35J-39355D01*
G75*
G01*
X7066076Y1339510D02*
G02*
X7026696Y1300180I-39451J121D01*
G75*
G01*
X6633006Y1339510D02*
G03*
X6672396Y1300180I40277J948D01*
G75*
G01*
X6042456Y1693840D02*
G02*
X6081846Y1733180I38928J413D01*
G75*
G01*
X6436156Y1733210D02*
G02*
X6475546Y1693880I35J-39355D01*
G75*
G01*
X6475526Y1339510D02*
G02*
X6436146Y1300180I-39451J121D01*
G75*
G01*
X6042456Y1339510D02*
G03*
X6081846Y1300180I40277J948D01*
G75*
G01*
X5451906Y1693840D02*
G02*
X5491296Y1733180I38928J413D01*
G75*
G01*
X5845606Y1733210D02*
G02*
X5884996Y1693880I35J-39355D01*
G75*
G01*
X5884976Y1339510D02*
G02*
X5845596Y1300180I-39451J121D01*
G75*
G01*
X5451906Y1339510D02*
G03*
X5491296Y1300180I40277J948D01*
G75*
G01*
X4860914Y1339923D02*
G03*
X4900304Y1300593I40277J948D01*
G75*
G01*
X5293984Y1339923D02*
G02*
X5254604Y1300593I-39451J121D01*
G75*
G01*
X5254614Y1733623D02*
G02*
X5294004Y1694293I35J-39355D01*
G75*
G01*
X4860914Y1694253D02*
G02*
X4900304Y1733593I38928J413D01*
G75*
G01*
X4860472Y2285216D02*
G02*
X4899862Y2324556I38928J413D01*
G75*
G01*
X5254172Y2324586D02*
G02*
X5293562Y2285256I35J-39355D01*
G75*
G01*
X5293542Y1930886D02*
G02*
X5254162Y1891556I-39451J121D01*
G75*
G01*
X4860472Y1930886D02*
G03*
X4899862Y1891556I40277J948D01*
G75*
G01*
X5451464Y1930473D02*
G03*
X5490854Y1891143I40277J948D01*
G75*
G01*
X5884534Y1930473D02*
G02*
X5845154Y1891143I-39451J121D01*
G75*
G01*
X5845164Y2324173D02*
G02*
X5884554Y2284843I35J-39355D01*
G75*
G01*
X5451464Y2284803D02*
G02*
X5490854Y2324143I38928J413D01*
G75*
G01*
X6042014Y1930473D02*
G03*
X6081404Y1891143I40277J948D01*
G75*
G01*
X6475084Y1930473D02*
G02*
X6435704Y1891143I-39451J121D01*
G75*
G01*
X6435714Y2324173D02*
G02*
X6475104Y2284843I35J-39355D01*
G75*
G01*
X6042014Y2284803D02*
G02*
X6081404Y2324143I38928J413D01*
G75*
G01*
X6632564Y1930473D02*
G03*
X6671954Y1891143I40277J948D01*
G75*
G01*
X7065634Y1930473D02*
G02*
X7026254Y1891143I-39451J121D01*
G75*
G01*
X7026264Y2324173D02*
G02*
X7065654Y2284843I35J-39355D01*
G75*
G01*
X6632564Y2284803D02*
G02*
X6671954Y2324143I38928J413D01*
G75*
G01*
X2498272Y2285216D02*
G02*
X2537662Y2324556I38928J413D01*
G75*
G01*
X2891972Y2324586D02*
G02*
X2931362Y2285256I35J-39355D01*
G75*
G01*
X2931342Y1930886D02*
G02*
X2891962Y1891556I-39451J121D01*
G75*
G01*
X2498272Y1930886D02*
G03*
X2537662Y1891556I40277J948D01*
G75*
G01*
X3089264Y1930473D02*
G03*
X3128654Y1891143I40277J948D01*
G75*
G01*
X3522334Y1930473D02*
G02*
X3482954Y1891143I-39451J121D01*
G75*
G01*
X3482964Y2324173D02*
G02*
X3522354Y2284843I35J-39355D01*
G75*
G01*
X3089264Y2284803D02*
G02*
X3128654Y2324143I38928J413D01*
G75*
G01*
X3679814Y1930473D02*
G03*
X3719204Y1891143I40277J948D01*
G75*
G01*
X4112884Y1930473D02*
G02*
X4073504Y1891143I-39451J121D01*
G75*
G01*
X4073514Y2324173D02*
G02*
X4112904Y2284843I35J-39355D01*
G75*
G01*
X3679814Y2284803D02*
G02*
X3719204Y2324143I38928J413D01*
G75*
G01*
X4270364Y1930473D02*
G03*
X4309754Y1891143I40277J948D01*
G75*
G01*
X4703434Y1930473D02*
G02*
X4664054Y1891143I-39451J121D01*
G75*
G01*
X4664064Y2324173D02*
G02*
X4703454Y2284843I35J-39355D01*
G75*
G01*
X4270364Y2284803D02*
G02*
X4309754Y2324143I38928J413D01*
G75*
G01*
X1907722Y2285216D02*
G02*
X1947112Y2324556I38928J413D01*
G75*
G01*
X2301422Y2324586D02*
G02*
X2340812Y2285256I35J-39355D01*
G75*
G01*
X2340792Y1930886D02*
G02*
X2301412Y1891556I-39451J121D01*
G75*
G01*
X1907722Y1930886D02*
G03*
X1947112Y1891556I40277J948D01*
G75*
G01*
X1317172Y2285216D02*
G02*
X1356562Y2324556I38928J413D01*
G75*
G01*
X1710872Y2324586D02*
G02*
X1750262Y2285256I35J-39355D01*
G75*
G01*
X1750242Y1930886D02*
G02*
X1710862Y1891556I-39451J121D01*
G75*
G01*
X1317172Y1930886D02*
G03*
X1356562Y1891556I40277J948D01*
G75*
G01*
X726622Y2285216D02*
G02*
X766012Y2324556I38928J413D01*
G75*
G01*
X1120322Y2324586D02*
G02*
X1159712Y2285256I35J-39355D01*
G75*
G01*
X1159692Y1930886D02*
G02*
X1120312Y1891556I-39451J121D01*
G75*
G01*
X726622Y1930886D02*
G03*
X766012Y1891556I40277J948D01*
G75*
G01*
X135630Y1931299D02*
G03*
X175020Y1891969I40277J948D01*
G75*
G01*
X568700Y1931299D02*
G02*
X529320Y1891969I-39451J121D01*
G75*
G01*
X529330Y2324999D02*
G02*
X568720Y2285669I35J-39355D01*
G75*
G01*
X135630Y2285629D02*
G02*
X175020Y2324969I38928J413D01*

%LPD*%
M02*
