{
    "Drum4": {
        "sampleFile": "hat_01.wav",
        "values": [
            {
                "key": "ENGINE",
                "value": 5.0
            },
            {
                "key": "VAL_1",
                "value": 0.0
            },
            {
                "key": "VAL_2",
                "value": 7.0
            },
            {
                "key": "VAL_3",
                "value": 10.0
            },
            {
                "key": "VAL_4",
                "value": 10.0
            },
            {
                "key": "VAL_5",
                "value": 8.0
            },
            {
                "key": "VAL_6",
                "value": 8.0
            },
            {
                "key": "VAL_7",
                "value": 0.0
            },
            {
                "key": "VAL_8",
                "value": 0.0
            },
            {
                "key": "VAL_9",
                "value": 0.0
            },
            {
                "key": "VAL_10",
                "value": 0.0
            },
            {
                "key": "DURATION",
                "value": 100.0
            },
            {
                "key": "AMP_MORPH",
                "value": 0.0
            }
        ]
    },
    "Sequencer": {
        "STATUS": 0.0,
        "STEPS": [
            {
                "condition": "---",
                "enabled": true,
                "len": 1,
                "motion": "---",
                "note": 60,
                "position": 0,
                "velocity": 0.800000011920929
            },
            {
                "condition": "---",
                "enabled": true,
                "len": 1,
                "motion": "---",
                "note": 60,
                "position": 8,
                "velocity": 0.800000011920929
            },
            {
                "condition": "---",
                "enabled": true,
                "len": 1,
                "motion": "---",
                "note": 60,
                "position": 16,
                "velocity": 0.800000011920929
            },
            {
                "condition": "---",
                "enabled": true,
                "len": 1,
                "motion": "---",
                "note": 60,
                "position": 24,
                "velocity": 0.800000011920929
            },
            {
                "condition": "---",
                "enabled": true,
                "len": 1,
                "motion": "---",
                "note": 60,
                "position": 2,
                "velocity": 0.800000011920929
            },
            {
                "condition": "---",
                "enabled": true,
                "len": 1,
                "motion": "---",
                "note": 60,
                "position": 4,
                "velocity": 0.800000011920929
            },
            {
                "condition": "---",
                "enabled": true,
                "len": 1,
                "motion": "---",
                "note": 60,
                "position": 6,
                "velocity": 0.800000011920929
            },
            {
                "condition": "---",
                "enabled": true,
                "len": 1,
                "motion": "---",
                "note": 60,
                "position": 10,
                "velocity": 0.800000011920929
            },
            {
                "condition": "---",
                "enabled": true,
                "len": 1,
                "motion": "---",
                "note": 60,
                "position": 12,
                "velocity": 0.800000011920929
            },
            {
                "condition": "---",
                "enabled": true,
                "len": 1,
                "motion": "---",
                "note": 60,
                "position": 14,
                "velocity": 0.800000011920929
            },
            {
                "condition": "---",
                "enabled": true,
                "len": 1,
                "motion": "---",
                "note": 60,
                "position": 18,
                "velocity": 0.800000011920929
            },
            {
                "condition": "---",
                "enabled": true,
                "len": 1,
                "motion": "---",
                "note": 60,
                "position": 20,
                "velocity": 0.800000011920929
            },
            {
                "condition": "---",
                "enabled": true,
                "len": 1,
                "motion": "---",
                "note": 60,
                "position": 22,
                "velocity": 0.800000011920929
            },
            {
                "condition": "---",
                "enabled": true,
                "len": 1,
                "motion": "---",
                "note": 60,
                "position": 26,
                "velocity": 0.800000011920929
            },
            {
                "condition": "---",
                "enabled": true,
                "len": 1,
                "motion": "---",
                "note": 60,
                "position": 28,
                "velocity": 0.800000011920929
            },
            {
                "condition": "---",
                "enabled": true,
                "len": 1,
                "motion": "---",
                "note": 60,
                "position": 30,
                "velocity": 0.800000011920929
            },
            {
                "condition": "---",
                "enabled": true,
                "len": 1,
                "motion": "---",
                "note": 60,
                "position": 32,
                "velocity": 0.800000011920929
            },
            {
                "condition": "---",
                "enabled": true,
                "len": 1,
                "motion": "---",
                "note": 60,
                "position": 34,
                "velocity": 0.800000011920929
            },
            {
                "condition": "---",
                "enabled": true,
                "len": 1,
                "motion": "---",
                "note": 60,
                "position": 36,
                "velocity": 0.800000011920929
            },
            {
                "condition": "---",
                "enabled": true,
                "len": 1,
                "motion": "---",
                "note": 60,
                "position": 38,
                "velocity": 0.800000011920929
            },
            {
                "condition": "---",
                "enabled": true,
                "len": 1,
                "motion": "---",
                "note": 60,
                "position": 40,
                "velocity": 0.800000011920929
            },
            {
                "condition": "---",
                "enabled": true,
                "len": 1,
                "motion": "---",
                "note": 60,
                "position": 42,
                "velocity": 0.800000011920929
            },
            {
                "condition": "---",
                "enabled": true,
                "len": 1,
                "motion": "---",
                "note": 60,
                "position": 44,
                "velocity": 0.800000011920929
            },
            {
                "condition": "---",
                "enabled": true,
                "len": 1,
                "motion": "---",
                "note": 60,
                "position": 46,
                "velocity": 0.800000011920929
            },
            {
                "condition": "---",
                "enabled": true,
                "len": 1,
                "motion": "---",
                "note": 60,
                "position": 48,
                "velocity": 0.800000011920929
            },
            {
                "condition": "---",
                "enabled": true,
                "len": 1,
                "motion": "---",
                "note": 60,
                "position": 50,
                "velocity": 0.800000011920929
            },
            {
                "condition": "---",
                "enabled": true,
                "len": 1,
                "motion": "---",
                "note": 60,
                "position": 52,
                "velocity": 0.800000011920929
            },
            {
                "condition": "---",
                "enabled": true,
                "len": 1,
                "motion": "---",
                "note": 60,
                "position": 54,
                "velocity": 0.800000011920929
            },
            {
                "condition": "---",
                "enabled": true,
                "len": 1,
                "motion": "---",
                "note": 60,
                "position": 56,
                "velocity": 0.800000011920929
            },
            {
                "condition": "---",
                "enabled": true,
                "len": 1,
                "motion": "---",
                "note": 60,
                "position": 58,
                "velocity": 0.800000011920929
            },
            {
                "condition": "---",
                "enabled": true,
                "len": 1,
                "motion": "---",
                "note": 60,
                "position": 60,
                "velocity": 0.800000011920929
            },
            {
                "condition": "---",
                "enabled": true,
                "len": 1,
                "motion": "---",
                "note": 60,
                "position": 62,
                "velocity": 0.800000011920929
            }
        ]
    },
    "SerializeTrack": {
        "VARIATION": 6.0
    },
    "TrackFx": {
        "values": [
            {
                "key": "VOLUME",
                "value": 100.0
            },
            {
                "key": "GAIN",
                "value": 1.0
            }
        ]
    }
}