G04 Layer: BoardOutlineLayer*
G04 EasyEDA v6.5.39, 2024-01-12 11:35:09*
G04 4980f93ac73447f5a063ba286352cf90,24315905b9734375b2ccc5c6aeea7757,10*
G04 Gerber Generator version 0.2*
G04 Scale: 100 percent, Rotated: No, Reflected: No *
G04 Dimensions in inches *
G04 leading zeros omitted , absolute positions ,3 integer and 6 decimal *
%FSLAX36Y36*%
%MOIN*%

%ADD10C,0.0020*%
%ADD11C,0.0050*%
D10*
X2450000Y1250000D02*
G01*
X2450000Y0D01*
X0Y0D01*
X0Y1250000D01*
X2450000Y1250000D01*
D11*
X763617Y1143069D02*
G01*
X724247Y1103701D01*
X724238Y749402D01*
X763641Y710000D01*
X1117938Y710000D01*
X1157337Y749402D01*
X1157318Y1103701D01*
X1117948Y1143069D01*
X763617Y1143069D01*
X175000Y1145000D02*
G01*
X135625Y1105630D01*
X135617Y751327D01*
X175019Y711929D01*
X529315Y711929D01*
X568719Y751327D01*
X568695Y1105630D01*
X529326Y1145000D01*
X175000Y1145000D01*
X763617Y553069D02*
G01*
X724247Y513701D01*
X724238Y159402D01*
X763638Y120000D01*
X1117934Y120000D01*
X1157339Y159402D01*
X1157318Y513701D01*
X1117948Y553069D01*
X763617Y553069D01*
X175000Y555000D02*
G01*
X135625Y515630D01*
X135617Y161327D01*
X175014Y121929D01*
X529311Y121929D01*
X568715Y161327D01*
X568695Y515630D01*
X529326Y555000D01*
X175000Y555000D01*
X1945164Y551006D02*
G01*
X1905793Y511637D01*
X1905784Y157334D01*
X1945182Y117937D01*
X2299480Y117937D01*
X2338883Y157334D01*
X2338860Y511637D01*
X2299489Y551006D01*
X1945164Y551006D01*
X1354611Y551006D02*
G01*
X1315241Y511637D01*
X1315231Y157339D01*
X1354636Y117937D01*
X1708932Y117937D01*
X1748333Y157339D01*
X1748312Y511637D01*
X1708942Y551006D01*
X1354611Y551006D01*
X1945183Y1141525D02*
G01*
X1905814Y1102157D01*
X1905803Y747853D01*
X1945203Y708456D01*
X2299499Y708456D01*
X2338904Y747853D01*
X2338879Y1102157D01*
X2299510Y1141525D01*
X1945183Y1141525D01*
X1354632Y1141525D02*
G01*
X1315262Y1102157D01*
X1315252Y747858D01*
X1354656Y708456D01*
X1708953Y708456D01*
X1748352Y747858D01*
X1748333Y1102157D01*
X1708963Y1141525D01*
X1354632Y1141525D01*

%LPD*%
M02*
