<?xml version="1.0" encoding="UTF-8" standalone="no"?>
<!-- Created with Inkscape (http://www.inkscape.org/) -->

<svg
   width="210mm"
   height="100mm"
   viewBox="0 0 190 70"
   version="1.1"
   id="svg3025"
   inkscape:version="1.2.2 (b0a8486541, 2022-12-01)"
   sodipodi:docname="12x4_top.svg"
   xmlns:inkscape="http://www.inkscape.org/namespaces/inkscape"
   xmlns:sodipodi="http://sodipodi.sourceforge.net/DTD/sodipodi-0.dtd"
   xmlns="http://www.w3.org/2000/svg"
   xmlns:svg="http://www.w3.org/2000/svg">
  <g
     inkscape:label="Layer 1"
     inkscape:groupmode="layer"
     id="layer1">
    <g
       id="g504"
       transform="matrix(0.35277777,0,0,-0.35277777,17.165547,59.815321)">
      <path
         d="m 0,0 c 0,-3.132 -2.538,-5.669 -5.669,-5.669 h -19.843 c -3.131,0 -5.669,2.537 -5.669,5.669 v 19.842 c 0,3.131 2.538,5.67 5.669,5.67 H -5.669 C -2.538,25.512 0,22.973 0,19.842 Z"
         style="fill:none;stroke:#ff0000;stroke-width:0.562;stroke-linecap:round;stroke-linejoin:round;stroke-miterlimit:10;stroke-dasharray:none;stroke-opacity:1"
         id="path506" />
    </g>
    <g
       id="g508"
       transform="matrix(0.35277777,0,0,-0.35277777,32.165657,59.815321)">
      <path
         d="m 0,0 c 0,-3.132 -2.539,-5.669 -5.669,-5.669 h -19.843 c -3.131,0 -5.67,2.537 -5.67,5.669 v 19.842 c 0,3.131 2.539,5.67 5.67,5.67 h 19.843 c 3.13,0 5.669,-2.539 5.669,-5.67 z"
         style="fill:none;stroke:#ff0000;stroke-width:0.562;stroke-linecap:round;stroke-linejoin:round;stroke-miterlimit:10;stroke-dasharray:none;stroke-opacity:1"
         id="path510" />
    </g>
    <g
       id="g512"
       transform="matrix(0.35277777,0,0,-0.35277777,47.165627,59.815321)">
      <path
         d="m 0,0 c 0,-3.132 -2.539,-5.669 -5.669,-5.669 h -19.843 c -3.131,0 -5.669,2.537 -5.669,5.669 v 19.842 c 0,3.131 2.538,5.67 5.669,5.67 h 19.843 c 3.13,0 5.669,-2.539 5.669,-5.67 z"
         style="fill:none;stroke:#ff0000;stroke-width:0.562;stroke-linecap:round;stroke-linejoin:round;stroke-miterlimit:10;stroke-dasharray:none;stroke-opacity:1"
         id="path514" />
    </g>
    <g
       id="g516"
       transform="matrix(0.35277777,0,0,-0.35277777,62.165567,59.815321)">
      <path
         d="m 0,0 c 0,-3.132 -2.538,-5.669 -5.669,-5.669 h -19.843 c -3.131,0 -5.669,2.537 -5.669,5.669 v 19.842 c 0,3.131 2.538,5.67 5.669,5.67 H -5.669 C -2.538,25.512 0,22.973 0,19.842 Z"
         style="fill:none;stroke:#ff0000;stroke-width:0.562;stroke-linecap:round;stroke-linejoin:round;stroke-miterlimit:10;stroke-dasharray:none;stroke-opacity:1"
         id="path518" />
    </g>
    <g
       id="g520"
       transform="matrix(0.35277777,0,0,-0.35277777,17.165547,44.815385)">
      <path
         d="m 0,0 c 0,-3.131 -2.538,-5.669 -5.669,-5.669 h -19.843 c -3.131,0 -5.669,2.538 -5.669,5.669 v 19.842 c 0,3.132 2.538,5.67 5.669,5.67 H -5.669 C -2.538,25.512 0,22.974 0,19.842 Z"
         style="fill:none;stroke:#ff0000;stroke-width:0.562;stroke-linecap:round;stroke-linejoin:round;stroke-miterlimit:10;stroke-dasharray:none;stroke-opacity:1"
         id="path522" />
    </g>
    <g
       id="g524"
       transform="matrix(0.35277777,0,0,-0.35277777,32.165657,44.815385)">
      <path
         d="m 0,0 c 0,-3.131 -2.539,-5.669 -5.669,-5.669 h -19.843 c -3.131,0 -5.67,2.538 -5.67,5.669 v 19.842 c 0,3.132 2.539,5.67 5.67,5.67 h 19.843 c 3.13,0 5.669,-2.538 5.669,-5.67 z"
         style="fill:none;stroke:#ff0000;stroke-width:0.562;stroke-linecap:round;stroke-linejoin:round;stroke-miterlimit:10;stroke-dasharray:none;stroke-opacity:1"
         id="path526" />
    </g>
    <g
       id="g528"
       transform="matrix(0.35277777,0,0,-0.35277777,47.165627,44.815385)">
      <path
         d="m 0,0 c 0,-3.131 -2.539,-5.669 -5.669,-5.669 h -19.843 c -3.131,0 -5.669,2.538 -5.669,5.669 v 19.842 c 0,3.132 2.538,5.67 5.669,5.67 h 19.843 c 3.13,0 5.669,-2.538 5.669,-5.67 z"
         style="fill:none;stroke:#ff0000;stroke-width:0.562;stroke-linecap:round;stroke-linejoin:round;stroke-miterlimit:10;stroke-dasharray:none;stroke-opacity:1"
         id="path530" />
    </g>
    <g
       id="g532"
       transform="matrix(0.35277777,0,0,-0.35277777,62.165567,44.815385)">
      <path
         d="m 0,0 c 0,-3.131 -2.538,-5.669 -5.669,-5.669 h -19.843 c -3.131,0 -5.669,2.538 -5.669,5.669 v 19.842 c 0,3.132 2.538,5.67 5.669,5.67 H -5.669 C -2.538,25.512 0,22.974 0,19.842 Z"
         style="fill:none;stroke:#ff0000;stroke-width:0.562;stroke-linecap:round;stroke-linejoin:round;stroke-miterlimit:10;stroke-dasharray:none;stroke-opacity:1"
         id="path534" />
    </g>
    <g
       id="g536"
       transform="matrix(0.35277777,0,0,-0.35277777,17.165547,29.815451)">
      <path
         d="m 0,0 c 0,-3.131 -2.538,-5.669 -5.669,-5.669 h -19.843 c -3.131,0 -5.669,2.538 -5.669,5.669 v 19.843 c 0,3.131 2.538,5.669 5.669,5.669 H -5.669 C -2.538,25.512 0,22.974 0,19.843 Z"
         style="fill:none;stroke:#ff0000;stroke-width:0.562;stroke-linecap:round;stroke-linejoin:round;stroke-miterlimit:10;stroke-dasharray:none;stroke-opacity:1"
         id="path538" />
    </g>
    <g
       id="g540"
       transform="matrix(0.35277777,0,0,-0.35277777,32.165657,29.815451)">
      <path
         d="m 0,0 c 0,-3.131 -2.539,-5.669 -5.669,-5.669 h -19.843 c -3.131,0 -5.67,2.538 -5.67,5.669 v 19.843 c 0,3.131 2.539,5.669 5.67,5.669 H -5.669 C -2.539,25.512 0,22.974 0,19.843 Z"
         style="fill:none;stroke:#ff0000;stroke-width:0.562;stroke-linecap:round;stroke-linejoin:round;stroke-miterlimit:10;stroke-dasharray:none;stroke-opacity:1"
         id="path542" />
    </g>
    <g
       id="g544"
       transform="matrix(0.35277777,0,0,-0.35277777,47.165627,29.815451)">
      <path
         d="m 0,0 c 0,-3.131 -2.539,-5.669 -5.669,-5.669 h -19.843 c -3.131,0 -5.669,2.538 -5.669,5.669 v 19.843 c 0,3.131 2.538,5.669 5.669,5.669 H -5.669 C -2.539,25.512 0,22.974 0,19.843 Z"
         style="fill:none;stroke:#ff0000;stroke-width:0.562;stroke-linecap:round;stroke-linejoin:round;stroke-miterlimit:10;stroke-dasharray:none;stroke-opacity:1"
         id="path546" />
    </g>
    <g
       id="g548"
       transform="matrix(0.35277777,0,0,-0.35277777,62.165567,29.815451)">
      <path
         d="m 0,0 c 0,-3.131 -2.538,-5.669 -5.669,-5.669 h -19.843 c -3.131,0 -5.669,2.538 -5.669,5.669 v 19.843 c 0,3.131 2.538,5.669 5.669,5.669 H -5.669 C -2.538,25.512 0,22.974 0,19.843 Z"
         style="fill:none;stroke:#ff0000;stroke-width:0.562;stroke-linecap:round;stroke-linejoin:round;stroke-miterlimit:10;stroke-dasharray:none;stroke-opacity:1"
         id="path550" />
    </g>
    <g
       id="g552"
       transform="matrix(0.35277777,0,0,-0.35277777,17.165547,14.815481)">
      <path
         d="m 0,0 c 0,-3.131 -2.538,-5.669 -5.669,-5.669 h -19.843 c -3.131,0 -5.669,2.538 -5.669,5.669 v 19.843 c 0,3.131 2.538,5.669 5.669,5.669 H -5.669 C -2.538,25.512 0,22.974 0,19.843 Z"
         style="fill:none;stroke:#ff0000;stroke-width:0.562;stroke-linecap:round;stroke-linejoin:round;stroke-miterlimit:10;stroke-dasharray:none;stroke-opacity:1"
         id="path554" />
    </g>
    <g
       id="g556"
       transform="matrix(0.35277777,0,0,-0.35277777,32.165657,14.815481)">
      <path
         d="m 0,0 c 0,-3.131 -2.539,-5.669 -5.669,-5.669 h -19.843 c -3.131,0 -5.67,2.538 -5.67,5.669 v 19.843 c 0,3.131 2.539,5.669 5.67,5.669 H -5.669 C -2.539,25.512 0,22.974 0,19.843 Z"
         style="fill:none;stroke:#ff0000;stroke-width:0.562;stroke-linecap:round;stroke-linejoin:round;stroke-miterlimit:10;stroke-dasharray:none;stroke-opacity:1"
         id="path558" />
    </g>
    <g
       id="g560"
       transform="matrix(0.35277777,0,0,-0.35277777,47.165627,14.815481)">
      <path
         d="m 0,0 c 0,-3.131 -2.539,-5.669 -5.669,-5.669 h -19.843 c -3.131,0 -5.669,2.538 -5.669,5.669 v 19.843 c 0,3.131 2.538,5.669 5.669,5.669 H -5.669 C -2.539,25.512 0,22.974 0,19.843 Z"
         style="fill:none;stroke:#ff0000;stroke-width:0.562;stroke-linecap:round;stroke-linejoin:round;stroke-miterlimit:10;stroke-dasharray:none;stroke-opacity:1"
         id="path562" />
    </g>
    <g
       id="g564"
       transform="matrix(0.35277777,0,0,-0.35277777,62.165567,14.815481)">
      <path
         d="m 0,0 c 0,-3.131 -2.538,-5.669 -5.669,-5.669 h -19.843 c -3.131,0 -5.669,2.538 -5.669,5.669 v 19.843 c 0,3.131 2.538,5.669 5.669,5.669 H -5.669 C -2.538,25.512 0,22.974 0,19.843 Z"
         style="fill:none;stroke:#ff0000;stroke-width:0.562;stroke-linecap:round;stroke-linejoin:round;stroke-miterlimit:10;stroke-dasharray:none;stroke-opacity:1"
         id="path566" />
    </g>
    <g
       id="g568"
       transform="matrix(0.35277777,0,0,-0.35277777,77.165497,59.815321)">
      <path
         d="m 0,0 c 0,-3.132 -2.538,-5.669 -5.669,-5.669 h -19.843 c -3.131,0 -5.669,2.537 -5.669,5.669 v 19.842 c 0,3.131 2.538,5.67 5.669,5.67 H -5.669 C -2.538,25.512 0,22.973 0,19.842 Z"
         style="fill:none;stroke:#ff0000;stroke-width:0.562;stroke-linecap:round;stroke-linejoin:round;stroke-miterlimit:10;stroke-dasharray:none;stroke-opacity:1"
         id="path570" />
    </g>
    <g
       id="g572"
       transform="matrix(0.35277777,0,0,-0.35277777,92.165472,59.815321)">
      <path
         d="m 0,0 c 0,-3.132 -2.538,-5.669 -5.669,-5.669 h -19.843 c -3.131,0 -5.669,2.537 -5.669,5.669 v 19.842 c 0,3.131 2.538,5.67 5.669,5.67 H -5.669 C -2.538,25.512 0,22.973 0,19.842 Z"
         style="fill:none;stroke:#ff0000;stroke-width:0.562;stroke-linecap:round;stroke-linejoin:round;stroke-miterlimit:10;stroke-dasharray:none;stroke-opacity:1"
         id="path574" />
    </g>
    <g
       id="g576"
       transform="matrix(0.35277777,0,0,-0.35277777,107.16558,59.815321)">
      <path
         d="m 0,0 c 0,-3.132 -2.538,-5.669 -5.669,-5.669 h -19.843 c -3.131,0 -5.669,2.537 -5.669,5.669 v 19.842 c 0,3.131 2.538,5.67 5.669,5.67 H -5.669 C -2.538,25.512 0,22.973 0,19.842 Z"
         style="fill:none;stroke:#ff0000;stroke-width:0.562;stroke-linecap:round;stroke-linejoin:round;stroke-miterlimit:10;stroke-dasharray:none;stroke-opacity:1"
         id="path578" />
    </g>
    <g
       id="g580"
       transform="matrix(0.35277777,0,0,-0.35277777,122.16569,59.815321)">
      <path
         d="m 0,0 c 0,-3.132 -2.538,-5.669 -5.67,-5.669 h -19.843 c -3.131,0 -5.669,2.537 -5.669,5.669 v 19.842 c 0,3.131 2.538,5.67 5.669,5.67 H -5.67 c 3.132,0 5.67,-2.539 5.67,-5.67 z"
         style="fill:none;stroke:#ff0000;stroke-width:0.562;stroke-linecap:round;stroke-linejoin:round;stroke-miterlimit:10;stroke-dasharray:none;stroke-opacity:1"
         id="path582" />
    </g>
    <g
       id="g584"
       transform="matrix(0.35277777,0,0,-0.35277777,77.165497,44.815385)">
      <path
         d="m 0,0 c 0,-3.131 -2.538,-5.669 -5.669,-5.669 h -19.843 c -3.131,0 -5.669,2.538 -5.669,5.669 v 19.842 c 0,3.132 2.538,5.67 5.669,5.67 H -5.669 C -2.538,25.512 0,22.974 0,19.842 Z"
         style="fill:none;stroke:#ff0000;stroke-width:0.562;stroke-linecap:round;stroke-linejoin:round;stroke-miterlimit:10;stroke-dasharray:none;stroke-opacity:1"
         id="path586" />
    </g>
    <g
       id="g588"
       transform="matrix(0.35277777,0,0,-0.35277777,92.165472,44.815385)">
      <path
         d="m 0,0 c 0,-3.131 -2.538,-5.669 -5.669,-5.669 h -19.843 c -3.131,0 -5.669,2.538 -5.669,5.669 v 19.842 c 0,3.132 2.538,5.67 5.669,5.67 H -5.669 C -2.538,25.512 0,22.974 0,19.842 Z"
         style="fill:none;stroke:#ff0000;stroke-width:0.562;stroke-linecap:round;stroke-linejoin:round;stroke-miterlimit:10;stroke-dasharray:none;stroke-opacity:1"
         id="path590" />
    </g>
    <g
       id="g592"
       transform="matrix(0.35277777,0,0,-0.35277777,107.16558,44.815385)">
      <path
         d="m 0,0 c 0,-3.131 -2.538,-5.669 -5.669,-5.669 h -19.843 c -3.131,0 -5.669,2.538 -5.669,5.669 v 19.842 c 0,3.132 2.538,5.67 5.669,5.67 H -5.669 C -2.538,25.512 0,22.974 0,19.842 Z"
         style="fill:none;stroke:#ff0000;stroke-width:0.562;stroke-linecap:round;stroke-linejoin:round;stroke-miterlimit:10;stroke-dasharray:none;stroke-opacity:1"
         id="path594" />
    </g>
    <g
       id="g596"
       transform="matrix(0.35277777,0,0,-0.35277777,122.16569,44.815385)">
      <path
         d="m 0,0 c 0,-3.131 -2.538,-5.669 -5.67,-5.669 h -19.843 c -3.131,0 -5.669,2.538 -5.669,5.669 v 19.842 c 0,3.132 2.538,5.67 5.669,5.67 H -5.67 c 3.132,0 5.67,-2.538 5.67,-5.67 z"
         style="fill:none;stroke:#ff0000;stroke-width:0.562;stroke-linecap:round;stroke-linejoin:round;stroke-miterlimit:10;stroke-dasharray:none;stroke-opacity:1"
         id="path598" />
    </g>
    <g
       id="g600"
       transform="matrix(0.35277777,0,0,-0.35277777,77.165497,29.815451)">
      <path
         d="m 0,0 c 0,-3.131 -2.538,-5.669 -5.669,-5.669 h -19.843 c -3.131,0 -5.669,2.538 -5.669,5.669 v 19.843 c 0,3.131 2.538,5.669 5.669,5.669 H -5.669 C -2.538,25.512 0,22.974 0,19.843 Z"
         style="fill:none;stroke:#ff0000;stroke-width:0.562;stroke-linecap:round;stroke-linejoin:round;stroke-miterlimit:10;stroke-dasharray:none;stroke-opacity:1"
         id="path602" />
    </g>
    <g
       id="g604"
       transform="matrix(0.35277777,0,0,-0.35277777,92.165472,29.815451)">
      <path
         d="m 0,0 c 0,-3.131 -2.538,-5.669 -5.669,-5.669 h -19.843 c -3.131,0 -5.669,2.538 -5.669,5.669 v 19.843 c 0,3.131 2.538,5.669 5.669,5.669 H -5.669 C -2.538,25.512 0,22.974 0,19.843 Z"
         style="fill:none;stroke:#ff0000;stroke-width:0.562;stroke-linecap:round;stroke-linejoin:round;stroke-miterlimit:10;stroke-dasharray:none;stroke-opacity:1"
         id="path606" />
    </g>
    <g
       id="g608"
       transform="matrix(0.35277777,0,0,-0.35277777,107.16558,29.815451)">
      <path
         d="m 0,0 c 0,-3.131 -2.538,-5.669 -5.669,-5.669 h -19.843 c -3.131,0 -5.669,2.538 -5.669,5.669 v 19.843 c 0,3.131 2.538,5.669 5.669,5.669 H -5.669 C -2.538,25.512 0,22.974 0,19.843 Z"
         style="fill:none;stroke:#ff0000;stroke-width:0.562;stroke-linecap:round;stroke-linejoin:round;stroke-miterlimit:10;stroke-dasharray:none;stroke-opacity:1"
         id="path610" />
    </g>
    <g
       id="g612"
       transform="matrix(0.35277777,0,0,-0.35277777,122.16569,29.815451)">
      <path
         d="m 0,0 c 0,-3.131 -2.538,-5.669 -5.67,-5.669 h -19.843 c -3.131,0 -5.669,2.538 -5.669,5.669 v 19.843 c 0,3.131 2.538,5.669 5.669,5.669 H -5.67 c 3.132,0 5.67,-2.538 5.67,-5.669 z"
         style="fill:none;stroke:#ff0000;stroke-width:0.562;stroke-linecap:round;stroke-linejoin:round;stroke-miterlimit:10;stroke-dasharray:none;stroke-opacity:1"
         id="path614" />
    </g>
    <g
       id="g616"
       transform="matrix(0.35277777,0,0,-0.35277777,77.165497,14.815481)">
      <path
         d="m 0,0 c 0,-3.131 -2.538,-5.669 -5.669,-5.669 h -19.843 c -3.131,0 -5.669,2.538 -5.669,5.669 v 19.843 c 0,3.131 2.538,5.669 5.669,5.669 H -5.669 C -2.538,25.512 0,22.974 0,19.843 Z"
         style="fill:none;stroke:#ff0000;stroke-width:0.562;stroke-linecap:round;stroke-linejoin:round;stroke-miterlimit:10;stroke-dasharray:none;stroke-opacity:1"
         id="path618" />
    </g>
    <g
       id="g620"
       transform="matrix(0.35277777,0,0,-0.35277777,92.165472,14.815481)">
      <path
         d="m 0,0 c 0,-3.131 -2.538,-5.669 -5.669,-5.669 h -19.843 c -3.131,0 -5.669,2.538 -5.669,5.669 v 19.843 c 0,3.131 2.538,5.669 5.669,5.669 H -5.669 C -2.538,25.512 0,22.974 0,19.843 Z"
         style="fill:none;stroke:#ff0000;stroke-width:0.562;stroke-linecap:round;stroke-linejoin:round;stroke-miterlimit:10;stroke-dasharray:none;stroke-opacity:1"
         id="path622" />
    </g>
    <g
       id="g624"
       transform="matrix(0.35277777,0,0,-0.35277777,107.16558,14.815481)">
      <path
         d="m 0,0 c 0,-3.131 -2.538,-5.669 -5.669,-5.669 h -19.843 c -3.131,0 -5.669,2.538 -5.669,5.669 v 19.843 c 0,3.131 2.538,5.669 5.669,5.669 H -5.669 C -2.538,25.512 0,22.974 0,19.843 Z"
         style="fill:none;stroke:#ff0000;stroke-width:0.562;stroke-linecap:round;stroke-linejoin:round;stroke-miterlimit:10;stroke-dasharray:none;stroke-opacity:1"
         id="path626" />
    </g>
    <g
       id="g628"
       transform="matrix(0.35277777,0,0,-0.35277777,122.16569,14.815481)">
      <path
         d="m 0,0 c 0,-3.131 -2.538,-5.669 -5.67,-5.669 h -19.843 c -3.131,0 -5.669,2.538 -5.669,5.669 v 19.843 c 0,3.131 2.538,5.669 5.669,5.669 H -5.67 c 3.132,0 5.67,-2.538 5.67,-5.669 z"
         style="fill:none;stroke:#ff0000;stroke-width:0.562;stroke-linecap:round;stroke-linejoin:round;stroke-miterlimit:10;stroke-dasharray:none;stroke-opacity:1"
         id="path630" />
    </g>
    <g
       id="g760"
       transform="matrix(0.35277777,0,0,-0.35277777,137.16563,59.815321)">
      <path
         d="m 0,0 c 0,-3.132 -2.538,-5.669 -5.669,-5.669 h -19.843 c -3.132,0 -5.67,2.537 -5.67,5.669 v 19.842 c 0,3.131 2.538,5.67 5.67,5.67 H -5.669 C -2.538,25.512 0,22.973 0,19.842 Z"
         style="fill:none;stroke:#ff0000;stroke-width:0.562;stroke-linecap:round;stroke-linejoin:round;stroke-miterlimit:10;stroke-dasharray:none;stroke-opacity:1"
         id="path762" />
    </g>
    <g
       id="g764"
       transform="matrix(0.35277777,0,0,-0.35277777,152.1656,59.815321)">
      <path
         d="m 0,0 c 0,-3.132 -2.538,-5.669 -5.669,-5.669 h -19.843 c -3.131,0 -5.669,2.537 -5.669,5.669 v 19.842 c 0,3.131 2.538,5.67 5.669,5.67 H -5.669 C -2.538,25.512 0,22.973 0,19.842 Z"
         style="fill:none;stroke:#ff0000;stroke-width:0.562;stroke-linecap:round;stroke-linejoin:round;stroke-miterlimit:10;stroke-dasharray:none;stroke-opacity:1"
         id="path766" />
    </g>
    <g
       id="g768"
       transform="matrix(0.35277777,0,0,-0.35277777,167.16553,59.815321)">
      <path
         d="m 0,0 c 0,-3.132 -2.538,-5.669 -5.669,-5.669 h -19.843 c -3.131,0 -5.669,2.537 -5.669,5.669 v 19.842 c 0,3.131 2.538,5.67 5.669,5.67 H -5.669 C -2.538,25.512 0,22.973 0,19.842 Z"
         style="fill:none;stroke:#ff0000;stroke-width:0.562;stroke-linecap:round;stroke-linejoin:round;stroke-miterlimit:10;stroke-dasharray:none;stroke-opacity:1"
         id="path770" />
    </g>
    <g
       id="g772"
       transform="matrix(0.35277777,0,0,-0.35277777,182.16547,59.815321)">
      <path
         d="m 0,0 c 0,-3.132 -2.538,-5.669 -5.669,-5.669 h -19.843 c -3.131,0 -5.669,2.537 -5.669,5.669 v 19.842 c 0,3.131 2.538,5.67 5.669,5.67 H -5.669 C -2.538,25.512 0,22.973 0,19.842 Z"
         style="fill:none;stroke:#ff0000;stroke-width:0.562;stroke-linecap:round;stroke-linejoin:round;stroke-miterlimit:10;stroke-dasharray:none;stroke-opacity:1"
         id="path774" />
    </g>
    <g
       id="g776"
       transform="matrix(0.35277777,0,0,-0.35277777,137.16563,44.815385)">
      <path
         d="m 0,0 c 0,-3.131 -2.538,-5.669 -5.669,-5.669 h -19.843 c -3.132,0 -5.67,2.538 -5.67,5.669 v 19.842 c 0,3.132 2.538,5.67 5.67,5.67 H -5.669 C -2.538,25.512 0,22.974 0,19.842 Z"
         style="fill:none;stroke:#ff0000;stroke-width:0.562;stroke-linecap:round;stroke-linejoin:round;stroke-miterlimit:10;stroke-dasharray:none;stroke-opacity:1"
         id="path778" />
    </g>
    <g
       id="g780"
       transform="matrix(0.35277777,0,0,-0.35277777,152.1656,44.815385)">
      <path
         d="m 0,0 c 0,-3.131 -2.538,-5.669 -5.669,-5.669 h -19.843 c -3.131,0 -5.669,2.538 -5.669,5.669 v 19.842 c 0,3.132 2.538,5.67 5.669,5.67 H -5.669 C -2.538,25.512 0,22.974 0,19.842 Z"
         style="fill:none;stroke:#ff0000;stroke-width:0.562;stroke-linecap:round;stroke-linejoin:round;stroke-miterlimit:10;stroke-dasharray:none;stroke-opacity:1"
         id="path782" />
    </g>
    <g
       id="g784"
       transform="matrix(0.35277777,0,0,-0.35277777,167.16553,44.815385)">
      <path
         d="m 0,0 c 0,-3.131 -2.538,-5.669 -5.669,-5.669 h -19.843 c -3.131,0 -5.669,2.538 -5.669,5.669 v 19.842 c 0,3.132 2.538,5.67 5.669,5.67 H -5.669 C -2.538,25.512 0,22.974 0,19.842 Z"
         style="fill:none;stroke:#ff0000;stroke-width:0.562;stroke-linecap:round;stroke-linejoin:round;stroke-miterlimit:10;stroke-dasharray:none;stroke-opacity:1"
         id="path786" />
    </g>
    <g
       id="g788"
       transform="matrix(0.35277777,0,0,-0.35277777,182.16547,44.815385)">
      <path
         d="m 0,0 c 0,-3.131 -2.538,-5.669 -5.669,-5.669 h -19.843 c -3.131,0 -5.669,2.538 -5.669,5.669 v 19.842 c 0,3.132 2.538,5.67 5.669,5.67 H -5.669 C -2.538,25.512 0,22.974 0,19.842 Z"
         style="fill:none;stroke:#ff0000;stroke-width:0.562;stroke-linecap:round;stroke-linejoin:round;stroke-miterlimit:10;stroke-dasharray:none;stroke-opacity:1"
         id="path790" />
    </g>
    <g
       id="g792"
       transform="matrix(0.35277777,0,0,-0.35277777,137.16563,29.815451)">
      <path
         d="m 0,0 c 0,-3.131 -2.538,-5.669 -5.669,-5.669 h -19.843 c -3.132,0 -5.67,2.538 -5.67,5.669 v 19.843 c 0,3.131 2.538,5.669 5.67,5.669 H -5.669 C -2.538,25.512 0,22.974 0,19.843 Z"
         style="fill:none;stroke:#ff0000;stroke-width:0.562;stroke-linecap:round;stroke-linejoin:round;stroke-miterlimit:10;stroke-dasharray:none;stroke-opacity:1"
         id="path794" />
    </g>
    <g
       id="g796"
       transform="matrix(0.35277777,0,0,-0.35277777,152.1656,29.815451)">
      <path
         d="m 0,0 c 0,-3.131 -2.538,-5.669 -5.669,-5.669 h -19.843 c -3.131,0 -5.669,2.538 -5.669,5.669 v 19.843 c 0,3.131 2.538,5.669 5.669,5.669 H -5.669 C -2.538,25.512 0,22.974 0,19.843 Z"
         style="fill:none;stroke:#ff0000;stroke-width:0.562;stroke-linecap:round;stroke-linejoin:round;stroke-miterlimit:10;stroke-dasharray:none;stroke-opacity:1"
         id="path798" />
    </g>
    <g
       id="g800"
       transform="matrix(0.35277777,0,0,-0.35277777,167.16553,29.815451)">
      <path
         d="m 0,0 c 0,-3.131 -2.538,-5.669 -5.669,-5.669 h -19.843 c -3.131,0 -5.669,2.538 -5.669,5.669 v 19.843 c 0,3.131 2.538,5.669 5.669,5.669 H -5.669 C -2.538,25.512 0,22.974 0,19.843 Z"
         style="fill:none;stroke:#ff0000;stroke-width:0.562;stroke-linecap:round;stroke-linejoin:round;stroke-miterlimit:10;stroke-dasharray:none;stroke-opacity:1"
         id="path802" />
    </g>
    <g
       id="g804"
       transform="matrix(0.35277777,0,0,-0.35277777,182.16547,29.815451)">
      <path
         d="m 0,0 c 0,-3.131 -2.538,-5.669 -5.669,-5.669 h -19.843 c -3.131,0 -5.669,2.538 -5.669,5.669 v 19.843 c 0,3.131 2.538,5.669 5.669,5.669 H -5.669 C -2.538,25.512 0,22.974 0,19.843 Z"
         style="fill:none;stroke:#ff0000;stroke-width:0.562;stroke-linecap:round;stroke-linejoin:round;stroke-miterlimit:10;stroke-dasharray:none;stroke-opacity:1"
         id="path806" />
    </g>
    <g
       id="g808"
       transform="matrix(0.35277777,0,0,-0.35277777,137.16563,14.815481)">
      <path
         d="m 0,0 c 0,-3.131 -2.538,-5.669 -5.669,-5.669 h -19.843 c -3.132,0 -5.67,2.538 -5.67,5.669 v 19.843 c 0,3.131 2.538,5.669 5.67,5.669 H -5.669 C -2.538,25.512 0,22.974 0,19.843 Z"
         style="fill:none;stroke:#ff0000;stroke-width:0.562;stroke-linecap:round;stroke-linejoin:round;stroke-miterlimit:10;stroke-dasharray:none;stroke-opacity:1"
         id="path810" />
    </g>
    <g
       id="g812"
       transform="matrix(0.35277777,0,0,-0.35277777,152.1656,14.815481)">
      <path
         d="m 0,0 c 0,-3.131 -2.538,-5.669 -5.669,-5.669 h -19.843 c -3.131,0 -5.669,2.538 -5.669,5.669 v 19.843 c 0,3.131 2.538,5.669 5.669,5.669 H -5.669 C -2.538,25.512 0,22.974 0,19.843 Z"
         style="fill:none;stroke:#ff0000;stroke-width:0.562;stroke-linecap:round;stroke-linejoin:round;stroke-miterlimit:10;stroke-dasharray:none;stroke-opacity:1"
         id="path814" />
    </g>
    <g
       id="g816"
       transform="matrix(0.35277777,0,0,-0.35277777,167.16553,14.815481)">
      <path
         d="m 0,0 c 0,-3.131 -2.538,-5.669 -5.669,-5.669 h -19.843 c -3.131,0 -5.669,2.538 -5.669,5.669 v 19.843 c 0,3.131 2.538,5.669 5.669,5.669 H -5.669 C -2.538,25.512 0,22.974 0,19.843 Z"
         style="fill:none;stroke:#ff0000;stroke-width:0.562;stroke-linecap:round;stroke-linejoin:round;stroke-miterlimit:10;stroke-dasharray:none;stroke-opacity:1"
         id="path818" />
    </g>
    <g
       id="g820"
       transform="matrix(0.35277777,0,0,-0.35277777,182.16547,14.815481)">
      <path
         d="m 0,0 c 0,-3.131 -2.538,-5.669 -5.669,-5.669 h -19.843 c -3.131,0 -5.669,2.538 -5.669,5.669 v 19.843 c 0,3.131 2.538,5.669 5.669,5.669 H -5.669 C -2.538,25.512 0,22.974 0,19.843 Z"
         style="fill:none;stroke:#ff0000;stroke-width:0.562;stroke-linecap:round;stroke-linejoin:round;stroke-miterlimit:10;stroke-dasharray:none;stroke-opacity:1"
         id="path822" />
    </g>
  </g>
</svg>
