G04 Layer: BoardOutlineLayer*
G04 EasyEDA v6.5.39, 2024-01-11 07:40:14*
G04 c16b94320d5147dcba17a70f14251818,24315905b9734375b2ccc5c6aeea7757,10*
G04 Gerber Generator version 0.2*
G04 Scale: 100 percent, Rotated: No, Reflected: No *
G04 Dimensions in inches *
G04 leading zeros omitted , absolute positions ,3 integer and 6 decimal *
%FSLAX36Y36*%
%MOIN*%

%ADD10C,0.0050*%
%ADD11C,0.0020*%
D10*
X175000Y1735000D02*
G01*
X135625Y1695630D01*
X135617Y1341327D01*
X175019Y1301929D01*
X529315Y1301929D01*
X568719Y1341327D01*
X568695Y1695630D01*
X529326Y1735000D01*
X175000Y1735000D01*
X763617Y1143069D02*
G01*
X724247Y1103701D01*
X724238Y749402D01*
X763641Y710000D01*
X1117938Y710000D01*
X1157337Y749402D01*
X1157318Y1103701D01*
X1117948Y1143069D01*
X763617Y1143069D01*
X175000Y1145000D02*
G01*
X135625Y1105630D01*
X135617Y751327D01*
X175019Y711929D01*
X529315Y711929D01*
X568719Y751327D01*
X568695Y1105630D01*
X529326Y1145000D01*
X175000Y1145000D01*
X763617Y553069D02*
G01*
X724247Y513701D01*
X724238Y159402D01*
X763638Y120000D01*
X1117934Y120000D01*
X1157339Y159402D01*
X1157318Y513701D01*
X1117948Y553069D01*
X763617Y553069D01*
X175000Y555000D02*
G01*
X135625Y515630D01*
X135617Y161327D01*
X175014Y121929D01*
X529311Y121929D01*
X568715Y161327D01*
X568695Y515630D01*
X529326Y555000D01*
X175000Y555000D01*
X4895994Y549077D02*
G01*
X4856619Y509706D01*
X4856614Y155403D01*
X4896013Y116006D01*
X5250309Y116006D01*
X5289709Y155403D01*
X5289690Y509706D01*
X5250320Y549077D01*
X4895994Y549077D01*
X6665720Y547145D02*
G01*
X6626345Y507775D01*
X6626340Y153474D01*
X6665735Y114077D01*
X7020032Y114077D01*
X7059435Y153474D01*
X7059412Y507775D01*
X7020042Y547145D01*
X6665720Y547145D01*
X6075164Y547145D02*
G01*
X6035793Y507775D01*
X6035784Y153474D01*
X6075182Y114077D01*
X6429480Y114077D01*
X6468883Y153474D01*
X6468860Y507775D01*
X6429489Y547145D01*
X6075164Y547145D01*
X5484611Y547145D02*
G01*
X5445241Y507775D01*
X5445231Y153479D01*
X5484636Y114077D01*
X5838932Y114077D01*
X5878333Y153479D01*
X5878312Y507775D01*
X5838942Y547145D01*
X5484611Y547145D01*
X2535720Y551006D02*
G01*
X2496345Y511637D01*
X2496340Y157334D01*
X2535735Y117937D01*
X2890032Y117937D01*
X2929435Y157334D01*
X2929412Y511637D01*
X2890042Y551006D01*
X2535720Y551006D01*
X4305442Y549077D02*
G01*
X4266072Y509706D01*
X4266062Y155403D01*
X4305456Y116006D01*
X4659758Y116006D01*
X4699157Y155403D01*
X4699138Y509706D01*
X4659768Y549077D01*
X4305442Y549077D01*
X3714889Y549077D02*
G01*
X3675519Y509706D01*
X3675510Y155410D01*
X3714910Y116006D01*
X4069206Y116006D01*
X4108611Y155410D01*
X4108590Y509706D01*
X4069220Y549077D01*
X3714889Y549077D01*
X3126271Y551006D02*
G01*
X3086896Y511637D01*
X3086891Y157334D01*
X3126287Y117937D01*
X3480583Y117937D01*
X3519988Y157334D01*
X3519967Y511637D01*
X3480598Y551006D01*
X3126271Y551006D01*
X1945164Y551006D02*
G01*
X1905793Y511637D01*
X1905784Y157334D01*
X1945182Y117937D01*
X2299480Y117937D01*
X2338883Y157334D01*
X2338860Y511637D01*
X2299489Y551006D01*
X1945164Y551006D01*
X1354611Y551006D02*
G01*
X1315241Y511637D01*
X1315231Y157339D01*
X1354636Y117937D01*
X1708932Y117937D01*
X1748333Y157339D01*
X1748312Y511637D01*
X1708942Y551006D01*
X1354611Y551006D01*
X4896013Y1139596D02*
G01*
X4856638Y1100225D01*
X4856634Y745922D01*
X4896032Y706525D01*
X5250330Y706525D01*
X5289730Y745922D01*
X5289709Y1100225D01*
X5250339Y1139596D01*
X4896013Y1139596D01*
X6665739Y1137665D02*
G01*
X6626364Y1098294D01*
X6626360Y743993D01*
X6665754Y704596D01*
X7020051Y704596D01*
X7059456Y743993D01*
X7059431Y1098294D01*
X7020061Y1137665D01*
X6665739Y1137665D01*
X6075183Y1137665D02*
G01*
X6035814Y1098294D01*
X6035803Y743993D01*
X6075203Y704596D01*
X6429499Y704596D01*
X6468904Y743993D01*
X6468879Y1098294D01*
X6429510Y1137665D01*
X6075183Y1137665D01*
X5484632Y1137665D02*
G01*
X5445262Y1098294D01*
X5445252Y743998D01*
X5484656Y704596D01*
X5838953Y704596D01*
X5878352Y743998D01*
X5878333Y1098294D01*
X5838963Y1137665D01*
X5484632Y1137665D01*
X2535739Y1141525D02*
G01*
X2496364Y1102157D01*
X2496360Y747853D01*
X2535754Y708456D01*
X2890051Y708456D01*
X2929456Y747853D01*
X2929431Y1102157D01*
X2890061Y1141525D01*
X2535739Y1141525D01*
X4305461Y1139596D02*
G01*
X4266091Y1100225D01*
X4266081Y745922D01*
X4305477Y706525D01*
X4659777Y706525D01*
X4699178Y745922D01*
X4699157Y1100225D01*
X4659787Y1139596D01*
X4305461Y1139596D01*
X3714910Y1139596D02*
G01*
X3675540Y1100225D01*
X3675529Y745929D01*
X3714930Y706525D01*
X4069227Y706525D01*
X4108630Y745929D01*
X4108611Y1100225D01*
X4069241Y1139596D01*
X3714910Y1139596D01*
X3126292Y1141525D02*
G01*
X3086917Y1102157D01*
X3086912Y747853D01*
X3126306Y708456D01*
X3480604Y708456D01*
X3520007Y747853D01*
X3519988Y1102157D01*
X3480618Y1141525D01*
X3126292Y1141525D01*
X1945183Y1141525D02*
G01*
X1905814Y1102157D01*
X1905803Y747853D01*
X1945203Y708456D01*
X2299499Y708456D01*
X2338904Y747853D01*
X2338879Y1102157D01*
X2299510Y1141525D01*
X1945183Y1141525D01*
X1354632Y1141525D02*
G01*
X1315262Y1102157D01*
X1315252Y747858D01*
X1354656Y708456D01*
X1708953Y708456D01*
X1748352Y747858D01*
X1748333Y1102157D01*
X1708963Y1141525D01*
X1354632Y1141525D01*
X4896013Y1730145D02*
G01*
X4856638Y1690776D01*
X4856634Y1336471D01*
X4896032Y1297074D01*
X5250330Y1297074D01*
X5289730Y1336471D01*
X5289709Y1690776D01*
X5250339Y1730145D01*
X4896013Y1730145D01*
X6665739Y1728215D02*
G01*
X6626364Y1688845D01*
X6626360Y1334542D01*
X6665754Y1295145D01*
X7020051Y1295145D01*
X7059456Y1334542D01*
X7059431Y1688845D01*
X7020061Y1728215D01*
X6665739Y1728215D01*
X6075183Y1728215D02*
G01*
X6035814Y1688845D01*
X6035803Y1334542D01*
X6075203Y1295145D01*
X6429499Y1295145D01*
X6468904Y1334542D01*
X6468879Y1688845D01*
X6429510Y1728215D01*
X6075183Y1728215D01*
X5484632Y1728215D02*
G01*
X5445262Y1688845D01*
X5445252Y1334547D01*
X5484656Y1295145D01*
X5838953Y1295145D01*
X5878352Y1334547D01*
X5878333Y1688845D01*
X5838963Y1728215D01*
X5484632Y1728215D01*
X2535739Y1732074D02*
G01*
X2496364Y1692707D01*
X2496360Y1338402D01*
X2535754Y1299005D01*
X2890051Y1299005D01*
X2929456Y1338402D01*
X2929431Y1692707D01*
X2890061Y1732074D01*
X2535739Y1732074D01*
X4305461Y1730145D02*
G01*
X4266091Y1690776D01*
X4266081Y1336471D01*
X4305477Y1297074D01*
X4659777Y1297074D01*
X4699178Y1336471D01*
X4699157Y1690776D01*
X4659787Y1730145D01*
X4305461Y1730145D01*
X3714910Y1730145D02*
G01*
X3675540Y1690776D01*
X3675529Y1336478D01*
X3714930Y1297074D01*
X4069227Y1297074D01*
X4108630Y1336478D01*
X4108611Y1690776D01*
X4069241Y1730145D01*
X3714910Y1730145D01*
X3126292Y1732074D02*
G01*
X3086917Y1692707D01*
X3086912Y1338402D01*
X3126306Y1299005D01*
X3480604Y1299005D01*
X3520007Y1338402D01*
X3519988Y1692707D01*
X3480618Y1732074D01*
X3126292Y1732074D01*
X1945183Y1732074D02*
G01*
X1905814Y1692707D01*
X1905803Y1338402D01*
X1945203Y1299005D01*
X2299499Y1299005D01*
X2338904Y1338402D01*
X2338879Y1692707D01*
X2299510Y1732074D01*
X1945183Y1732074D01*
X1354632Y1732074D02*
G01*
X1315262Y1692707D01*
X1315252Y1338407D01*
X1354656Y1299005D01*
X1708953Y1299005D01*
X1748352Y1338407D01*
X1748333Y1692707D01*
X1708963Y1732074D01*
X1354632Y1732074D01*
X766013Y1734005D02*
G01*
X726640Y1694636D01*
X726633Y1340333D01*
X766032Y1300934D01*
X1120330Y1300934D01*
X1159733Y1340333D01*
X1159709Y1694636D01*
X1120339Y1734005D01*
X766013Y1734005D01*
X175000Y2325000D02*
G01*
X135630Y2285630D01*
X135619Y1931329D01*
X175019Y1891930D01*
X529319Y1891930D01*
X568719Y1931329D01*
X568699Y2285630D01*
X529329Y2325000D01*
X175000Y2325000D01*
X4895554Y2321138D02*
G01*
X4856179Y2281770D01*
X4856174Y1927467D01*
X4895568Y1888069D01*
X5249866Y1888069D01*
X5289269Y1927467D01*
X5289246Y2281770D01*
X5249876Y2321138D01*
X4895554Y2321138D01*
X6665276Y2319209D02*
G01*
X6625901Y2279839D01*
X6625896Y1925536D01*
X6665294Y1886138D01*
X7019592Y1886138D01*
X7058991Y1925536D01*
X7058972Y2279839D01*
X7019602Y2319209D01*
X6665276Y2319209D01*
X6074723Y2319209D02*
G01*
X6035353Y2279839D01*
X6035343Y1925536D01*
X6074739Y1886138D01*
X6429040Y1886138D01*
X6468440Y1925536D01*
X6468419Y2279839D01*
X6429049Y2319209D01*
X6074723Y2319209D01*
X5484171Y2319209D02*
G01*
X5444802Y2279839D01*
X5444791Y1925542D01*
X5484192Y1886138D01*
X5838489Y1886138D01*
X5877893Y1925542D01*
X5877873Y2279839D01*
X5838503Y2319209D01*
X5484171Y2319209D01*
X2535276Y2323069D02*
G01*
X2495901Y2283699D01*
X2495896Y1929398D01*
X2535294Y1889998D01*
X2889592Y1889998D01*
X2928995Y1929398D01*
X2928972Y2283699D01*
X2889602Y2323069D01*
X2535276Y2323069D01*
X4304997Y2321138D02*
G01*
X4265627Y2281770D01*
X4265618Y1927467D01*
X4305016Y1888069D01*
X4659314Y1888069D01*
X4698717Y1927467D01*
X4698693Y2281770D01*
X4659323Y2321138D01*
X4304997Y2321138D01*
X3714445Y2321138D02*
G01*
X3675075Y2281770D01*
X3675065Y1927471D01*
X3714470Y1888069D01*
X4068766Y1888069D01*
X4108167Y1927471D01*
X4108146Y2281770D01*
X4068777Y2321138D01*
X3714445Y2321138D01*
X3125828Y2323069D02*
G01*
X3086454Y2283699D01*
X3086448Y1929398D01*
X3125847Y1889998D01*
X3480144Y1889998D01*
X3519548Y1929398D01*
X3519524Y2283699D01*
X3480154Y2323069D01*
X3125828Y2323069D01*
X1944723Y2323069D02*
G01*
X1905351Y2283699D01*
X1905343Y1929398D01*
X1944742Y1889998D01*
X2299040Y1889998D01*
X2338443Y1929398D01*
X2338419Y2283699D01*
X2299049Y2323069D01*
X1944723Y2323069D01*
X1354171Y2323069D02*
G01*
X1314801Y2283699D01*
X1314791Y1929400D01*
X1354192Y1890001D01*
X1708491Y1890001D01*
X1747893Y1929400D01*
X1747872Y2283699D01*
X1708503Y2323069D01*
X1354171Y2323069D01*
X765550Y2325000D02*
G01*
X726179Y2285630D01*
X726170Y1931327D01*
X765569Y1891929D01*
X1119868Y1891929D01*
X1159270Y1931327D01*
X1159248Y2285630D01*
X1119879Y2325000D01*
X765550Y2325000D01*
D11*
X7200000Y5586999D02*
G01*
X7200000Y0D01*
X0Y0D01*
X0Y5587500D01*
X7200000Y5587500D01*
D10*
X4900000Y5387500D02*
G01*
X6800000Y5387500D01*
X6800000Y2687500D01*
X4900000Y2687500D01*
X4900000Y5387500D01*
G75*
G01
X1367710Y5087500D02*
G03X1367710Y5087500I-167710J0D01*
G75*
G01
X2392710Y5087500D02*
G03X2392710Y5087500I-167710J0D01*
G75*
G01
X3417710Y5087500D02*
G03X3417710Y5087500I-167710J0D01*
G75*
G01
X4442710Y5087500D02*
G03X4442710Y5087500I-167710J0D01*
G75*
G01
X4442710Y4087500D02*
G03X4442710Y4087500I-167710J0D01*
G75*
G01
X3417710Y4087500D02*
G03X3417710Y4087500I-167710J0D01*
G75*
G01
X2392710Y4087500D02*
G03X2392710Y4087500I-167710J0D01*
G75*
G01
X1367710Y4087500D02*
G03X1367710Y4087500I-167710J0D01*
G75*
G01
X2392710Y3087500D02*
G03X2392710Y3087500I-167710J0D01*
G75*
G01
X1360080Y3087500D02*
G03X1360080Y3087500I-160080J0D01*
G75*
G01
X3417710Y3087500D02*
G03X3417710Y3087500I-167710J0D01*
G75*
G01
X4442710Y3087500D02*
G03X4442710Y3087500I-167710J0D01*
G75*
G01
X3830900Y5137500D02*
G03X3830900Y5137500I-55900J0D01*
G75*
G01
X1780900Y5137500D02*
G03X1780900Y5137500I-55900J0D01*
G75*
G01
X1780900Y2687500D02*
G03X1780900Y2687500I-55900J0D01*
G75*
G01
X3830900Y2687500D02*
G03X3830900Y2687500I-55900J0D01*

%LPD*%
M02*
